{"glyphs":{"0":{"ha":840,"x_min":69,"x_max":771,"o":"m 322 400 q 327 268 322 329 q 339 163 332 207 q 357 65 346 110 q 375 60 365 63 q 395 56 383 57 q 419 54 407 54 q 444 56 432 54 q 464 60 456 57 q 482 65 474 63 q 500 165 492 111 q 513 272 507 211 q 518 400 518 332 q 513 531 518 471 q 500 636 507 592 q 482 733 492 689 q 464 739 474 736 q 444 743 456 742 q 419 744 432 744 q 395 743 407 744 q 375 739 383 742 q 357 733 365 736 q 339 633 346 688 q 327 527 332 588 q 322 400 322 467 m 69 399 q 89 590 69 511 q 151 718 108 668 q 260 791 194 768 q 421 814 326 814 q 581 791 514 814 q 690 718 647 768 q 751 590 732 668 q 771 399 771 511 q 751 209 771 288 q 690 81 732 131 q 581 8 647 31 q 421 -15 514 -15 q 260 8 326 -15 q 151 81 194 31 q 89 209 108 131 q 69 399 69 288 z "},"1":{"ha":571,"x_min":56,"x_max":522,"o":"m 186 754 l 369 826 l 399 826 l 399 81 l 522 81 l 522 0 l 56 0 l 56 81 l 179 81 l 179 674 l 56 674 l 56 754 l 186 754 z "},"2":{"ha":663,"x_min":28,"x_max":600,"o":"m 313 817 q 428 799 379 817 q 508 751 476 782 q 554 679 539 721 q 569 590 569 638 q 528 457 569 506 q 404 374 488 408 q 318 335 360 354 q 240 283 276 315 q 213 257 225 269 q 190 233 200 244 q 171 211 179 221 l 513 211 l 513 304 l 585 304 q 592 268 588 289 q 597 226 594 250 q 600 172 600 201 q 565 44 600 89 q 436 0 529 0 l 28 0 q 74 196 35 117 q 196 336 114 275 q 237 365 217 351 q 272 388 257 378 l 307 408 q 317 465 311 436 q 323 521 319 490 q 326 582 326 551 q 323 634 326 606 q 315 686 319 663 q 306 743 310 714 q 238 740 272 743 q 176 728 204 736 q 131 704 149 719 q 113 664 113 689 l 113 628 l 29 628 l 29 665 q 60 748 29 718 q 134 793 90 778 q 226 813 178 808 q 313 817 275 817 z "},"3":{"ha":639,"x_min":28,"x_max":576,"o":"m 314 471 q 321 522 317 494 q 325 582 325 550 q 322 634 325 606 q 314 686 318 663 q 304 743 308 714 q 237 740 271 743 q 175 728 203 736 q 129 704 147 719 q 111 664 111 689 l 111 628 l 28 628 l 28 665 q 58 748 28 718 q 133 793 89 778 q 225 813 176 808 q 311 817 274 817 q 425 799 378 817 q 501 751 472 782 q 544 679 531 721 q 557 590 557 638 q 538 488 557 528 q 476 421 519 449 q 552 346 528 393 q 576 215 576 299 q 515 47 576 107 q 311 -14 454 -14 q 225 -10 274 -14 q 133 10 176 -6 q 58 55 89 25 q 28 138 28 85 l 28 182 l 111 182 l 111 139 q 129 99 111 114 q 175 75 147 83 q 237 63 203 67 q 304 60 271 60 q 314 114 308 88 q 322 165 318 138 q 325 217 325 192 q 319 312 325 261 q 310 390 314 363 l 179 390 l 179 471 l 314 471 z "},"4":{"ha":718,"x_min":-14,"x_max":711,"o":"m -14 253 l 340 807 l 560 842 l 560 304 l 711 304 l 711 224 l 560 224 l 560 81 l 683 81 l 683 0 l 203 0 l 203 81 l 340 81 l 340 224 l -14 224 l -14 253 m 340 304 l 340 643 l 128 304 l 340 304 z "},"5":{"ha":632,"x_min":42,"x_max":590,"o":"m 168 592 l 168 471 l 282 471 q 410 463 353 471 q 507 430 467 456 q 569 355 547 404 q 590 222 590 306 q 525 47 590 108 q 325 -14 460 -14 q 239 -10 288 -14 q 147 10 190 -6 q 72 55 103 25 q 42 138 42 85 l 42 175 l 125 175 l 125 139 q 143 99 125 114 q 189 75 161 83 q 251 63 217 67 q 318 60 285 60 q 328 121 322 90 q 335 176 332 147 q 339 231 339 206 q 336 287 339 258 q 331 339 333 315 q 324 390 326 365 l 88 390 l 88 797 l 471 797 l 471 876 l 542 876 q 549 850 544 865 q 554 815 551 836 q 557 764 557 793 q 522 636 557 681 q 393 592 486 592 l 168 592 z "},"6":{"ha":760,"x_min":69,"x_max":704,"o":"m 388 -14 q 240 9 300 -14 q 141 81 179 32 q 86 209 103 131 q 69 399 69 288 q 86 590 69 511 q 140 718 103 668 q 235 791 176 768 q 379 814 294 814 q 465 810 417 814 q 558 790 514 806 q 631 744 601 775 q 661 663 661 714 l 661 625 l 578 625 l 578 661 q 560 701 578 686 q 515 725 543 717 q 453 737 488 733 q 386 740 419 740 q 363 740 372 740 q 346 738 353 739 q 333 735 339 736 q 326 649 329 694 q 324 554 324 603 l 324 475 q 355 477 339 476 q 388 478 371 478 q 519 469 460 478 q 619 435 578 461 q 682 363 660 410 q 704 242 704 317 q 688 130 704 178 q 633 50 671 82 q 535 2 596 18 q 388 -14 475 -14 m 322 231 q 325 161 322 193 q 331 106 328 129 q 339 56 335 78 q 351 51 344 53 q 367 49 358 50 q 388 49 375 49 q 408 49 399 49 q 424 51 417 50 q 436 56 431 53 q 444 106 440 78 q 451 161 447 129 q 454 231 454 193 q 451 301 454 268 q 444 357 447 333 q 436 407 440 385 l 422 410 q 407 413 415 411 q 388 414 399 414 q 358 413 376 414 q 322 411 340 413 l 322 231 z "},"7":{"ha":608,"x_min":14,"x_max":594,"o":"m 293 401 q 340 500 317 453 q 388 592 364 547 l 178 592 q 99 603 131 592 q 49 636 68 614 q 22 690 31 658 q 14 764 14 722 q 21 850 14 819 q 29 876 25 865 l 100 876 l 100 797 l 594 797 l 594 767 q 531 657 564 715 q 468 541 503 607 q 401 401 433 475 l 494 401 l 494 321 l 367 321 q 307 150 331 233 q 283 0 283 67 l 182 0 q 203 152 182 69 q 260 321 225 235 l 146 321 l 146 401 l 293 401 z "},"8":{"ha":800,"x_min":69,"x_max":704,"o":"m 101 614 q 116 699 101 661 q 164 762 131 736 q 251 801 197 788 q 386 814 306 814 l 414 814 q 490 815 457 814 q 544 822 522 815 q 578 840 567 828 q 590 876 590 853 l 665 876 q 644 809 665 832 q 588 775 624 786 q 653 709 633 750 q 672 614 672 668 q 645 507 672 549 q 551 446 618 465 q 667 372 631 424 q 704 232 704 321 q 629 46 704 106 q 386 -14 554 -14 q 144 46 219 -14 q 69 232 69 106 q 106 372 69 321 q 222 446 143 424 q 128 507 156 465 q 101 614 101 549 m 322 231 q 325 160 322 193 q 331 104 328 128 q 339 54 335 76 q 351 51 344 53 q 367 49 358 50 q 388 49 376 49 q 408 49 399 49 q 425 51 418 50 q 438 54 432 53 q 446 104 442 76 q 451 160 449 128 q 454 231 454 193 q 451 301 454 268 q 446 358 449 335 q 438 410 442 386 l 339 410 q 331 358 335 386 q 325 301 328 335 q 322 231 322 268 m 339 614 q 340 563 339 586 q 344 521 342 539 q 351 483 347 500 l 425 483 q 431 521 428 500 q 435 563 433 539 q 438 614 438 586 q 435 666 438 642 q 431 708 433 690 q 425 746 428 729 q 414 747 419 746 q 402 749 408 749 q 388 750 396 750 q 361 747 372 750 q 351 746 356 746 q 344 708 347 729 q 340 666 342 690 q 339 614 339 642 z "},"9":{"ha":760,"x_min":56,"x_max":690,"o":"m 372 814 q 520 791 460 814 q 619 719 581 768 q 674 591 657 669 q 690 401 690 513 q 674 210 690 289 q 620 82 657 132 q 524 9 583 32 q 381 -14 465 -14 q 294 -10 343 -14 q 202 10 246 -6 q 128 55 158 25 q 99 138 99 85 l 99 175 l 182 175 l 182 139 q 199 99 182 114 q 244 75 217 83 q 306 63 272 67 q 374 60 340 60 q 397 60 388 60 q 414 63 407 61 q 426 65 421 64 q 433 151 431 106 q 436 246 436 197 l 436 325 q 405 323 421 324 q 372 322 389 322 q 240 331 299 322 q 141 365 182 339 q 78 437 100 390 q 56 558 56 483 q 72 670 56 622 q 126 750 89 718 q 224 798 164 782 q 372 814 285 814 m 438 569 q 435 639 438 607 q 429 694 432 671 q 421 744 425 721 q 408 747 415 746 q 392 750 401 749 q 372 751 383 751 q 351 750 360 751 q 336 747 343 749 q 324 744 329 746 q 314 694 318 721 q 308 639 311 671 q 306 569 306 607 q 308 499 306 531 q 314 443 311 467 q 324 393 318 415 q 338 389 331 390 q 353 387 344 388 q 372 386 361 386 q 401 387 383 386 q 438 389 419 388 l 438 569 z "}," ":{"ha":222,"x_min":0,"x_max":0,"o":""},"!":{"ha":433,"x_min":139,"x_max":378,"o":"m 296 275 l 222 275 l 139 683 q 167 778 139 743 q 258 814 196 814 q 344 778 317 814 q 372 683 372 742 l 296 275 m 147 86 q 174 178 147 149 q 263 207 200 207 q 353 178 329 207 q 378 86 378 149 q 351 -5 378 24 q 263 -33 325 -33 q 174 -5 200 -33 q 147 86 147 24 z "},"\"":{"ha":392,"x_min":69,"x_max":322,"o":"m 69 854 l 169 854 l 156 588 l 83 588 l 69 854 m 222 854 l 322 854 l 308 588 l 236 588 l 222 854 z "},"#":{"ha":644,"x_min":56,"x_max":589,"o":"m 161 333 l 189 475 l 89 475 l 89 556 l 206 556 l 254 801 l 340 801 l 292 556 l 414 556 l 463 801 l 549 801 l 500 556 l 589 556 l 589 475 l 483 475 l 456 333 l 556 333 l 556 253 l 440 253 l 390 0 l 304 0 l 354 253 l 232 253 l 182 0 l 96 0 l 146 253 l 56 253 l 56 333 l 161 333 m 247 333 l 369 333 l 397 475 l 275 475 l 247 333 z "},"$":{"ha":782,"x_min":69,"x_max":719,"o":"m 69 561 q 85 644 69 606 q 134 713 100 683 q 223 761 168 742 q 357 785 278 781 l 357 867 l 443 867 l 443 785 q 502 776 475 782 q 551 764 529 771 l 682 790 l 682 540 q 542 588 596 543 q 478 714 489 633 l 443 721 l 443 478 l 453 475 q 543 440 496 461 q 629 390 590 419 q 694 320 668 360 q 719 229 719 281 q 642 51 719 111 q 429 -18 564 -8 l 429 -92 l 343 -92 l 343 -19 q 257 -12 290 -18 q 204 1 224 -6 l 88 -21 l 88 269 q 178 251 139 268 q 244 203 217 233 q 286 133 271 174 q 304 44 301 92 l 343 42 l 343 306 q 249 345 297 325 q 161 393 201 365 q 95 460 121 421 q 69 561 69 500 m 479 147 q 466 206 479 179 q 429 253 453 232 l 429 44 l 463 47 q 471 72 467 57 q 476 103 474 85 q 479 147 479 122 m 307 628 q 319 562 307 588 q 357 518 332 536 l 357 724 l 325 719 q 315 692 319 707 q 310 663 313 679 q 307 628 307 646 z "},"%":{"ha":1135,"x_min":69,"x_max":1065,"o":"m 419 0 l 328 0 l 717 801 l 808 801 l 419 0 m 246 614 q 247 558 246 583 q 251 514 249 533 q 258 472 254 492 q 283 467 272 467 q 308 472 294 467 q 314 515 311 492 q 319 560 317 535 q 321 614 321 586 q 319 671 321 644 q 314 717 317 697 q 308 757 311 739 q 283 763 297 763 q 258 757 272 763 q 251 714 254 738 q 247 669 249 694 q 246 614 246 643 m 69 615 q 117 768 69 722 q 285 814 165 814 q 383 803 343 814 q 449 768 424 792 q 485 707 474 744 q 496 615 496 669 q 485 524 496 561 q 449 463 474 486 q 383 428 424 439 q 285 417 343 417 q 117 463 165 417 q 69 615 69 508 m 815 185 q 817 129 815 154 q 821 85 818 104 q 828 43 824 63 q 853 38 842 38 q 878 43 864 38 q 883 86 881 63 q 888 131 886 106 q 890 185 890 157 q 888 242 890 215 q 883 288 886 268 q 878 328 881 310 q 853 333 867 333 q 828 328 842 333 q 821 285 824 308 q 817 240 818 265 q 815 185 815 214 m 639 186 q 687 339 639 293 q 854 385 735 385 q 953 374 913 385 q 1018 339 993 363 q 1054 278 1043 315 q 1065 186 1065 240 q 1054 94 1065 132 q 1018 33 1043 57 q 953 -1 993 10 q 854 -12 913 -12 q 687 33 735 -12 q 639 186 639 79 z "},"&":{"ha":847,"x_min":63,"x_max":833,"o":"m 442 776 q 410 776 425 776 q 385 774 396 775 q 361 771 371 772 q 350 742 356 758 q 343 705 346 726 q 340 656 340 683 q 342 603 340 626 q 346 561 343 579 q 353 524 349 540 l 833 524 l 833 443 l 689 443 l 689 251 q 667 129 689 178 q 606 51 646 81 q 509 10 567 22 q 381 -3 451 -3 q 246 9 306 -3 q 146 50 186 21 q 84 128 106 79 q 63 250 63 176 q 104 402 63 342 q 233 483 146 463 q 126 546 161 504 q 92 658 92 588 q 176 813 92 768 q 442 857 261 857 q 522 851 479 857 q 602 827 565 844 q 663 778 639 810 q 688 697 688 747 l 688 688 l 604 688 l 604 696 q 590 736 604 721 q 553 760 576 751 q 501 773 531 769 q 442 776 472 776 m 343 85 q 354 81 349 82 q 388 78 368 78 q 554 119 500 78 q 608 261 608 160 l 608 443 l 350 443 q 335 386 340 417 q 325 325 329 360 q 321 254 321 290 q 324 185 321 215 q 332 132 328 154 q 343 85 338 107 z "},"'":{"ha":239,"x_min":69,"x_max":169,"o":"m 69 854 l 169 854 l 156 588 l 83 588 l 69 854 z "},"(":{"ha":544,"x_min":49,"x_max":447,"o":"m 447 -187 q 276 -132 350 -176 q 151 -15 201 -87 q 74 158 100 58 q 49 378 49 257 q 74 598 49 499 q 151 771 100 697 q 276 889 201 844 q 447 944 350 933 l 447 860 q 388 845 413 854 q 346 826 363 836 q 311 801 326 815 q 299 663 304 735 q 290 526 293 600 q 286 378 286 451 q 290 229 286 304 q 299 93 293 154 q 311 -44 304 21 q 346 -69 326 -58 q 388 -89 363 -79 q 447 -103 413 -99 l 447 -187 z "},")":{"ha":544,"x_min":97,"x_max":496,"o":"m 97 -103 q 156 -89 131 -99 q 199 -69 182 -79 q 233 -44 218 -58 q 246 93 240 21 q 254 229 250 154 q 258 378 258 304 q 254 526 258 451 q 246 663 250 600 q 233 801 240 735 q 199 826 218 815 q 156 845 182 836 q 97 860 131 854 l 97 944 q 269 889 194 933 q 394 771 343 844 q 470 598 444 697 q 496 378 496 499 q 470 158 496 257 q 394 -15 444 58 q 269 -132 343 -87 q 97 -187 194 -176 l 97 -103 z "},"*":{"ha":606,"x_min":69,"x_max":536,"o":"m 261 689 l 229 822 q 244 861 229 846 q 289 876 258 876 q 331 861 317 876 q 344 822 344 846 l 315 692 l 429 764 q 449 767 440 767 q 488 747 472 767 q 503 703 503 728 q 492 674 503 686 q 464 654 481 661 l 347 644 q 356 635 350 640 q 365 622 360 629 q 376 608 369 615 q 411 573 393 589 q 454 557 429 557 q 494 560 474 557 q 536 571 514 564 l 536 497 q 497 487 517 490 q 458 483 478 483 q 355 516 390 483 q 292 611 319 549 l 238 482 q 196 460 225 460 q 154 476 174 460 q 135 517 135 493 q 143 549 135 533 l 249 639 l 108 650 q 81 667 92 656 q 69 697 69 679 q 83 742 69 721 q 125 764 97 764 q 143 760 135 764 l 261 689 z "},"+":{"ha":656,"x_min":69,"x_max":586,"o":"m 285 325 l 69 325 l 69 406 l 285 406 l 285 624 l 371 624 l 371 406 l 586 406 l 586 325 l 371 325 l 371 107 l 285 107 l 285 325 z "},",":{"ha":369,"x_min":69,"x_max":300,"o":"m 69 86 q 96 178 69 149 q 185 207 122 207 q 276 178 251 207 q 300 86 300 149 q 296 -38 300 11 q 273 -118 292 -87 q 215 -161 254 -149 q 103 -174 175 -174 l 103 -107 l 114 -107 q 197 -92 172 -107 q 225 -29 222 -76 q 185 -33 206 -33 q 96 -5 122 -33 q 69 86 69 24 z "},"-":{"ha":544,"x_min":69,"x_max":475,"o":"m 475 447 l 475 367 l 69 367 l 69 447 l 475 447 z "},".":{"ha":369,"x_min":69,"x_max":300,"o":"m 69 86 q 96 178 69 149 q 185 207 122 207 q 276 178 251 207 q 300 86 300 149 q 274 -5 300 24 q 185 -33 247 -33 q 96 -5 122 -33 q 69 86 69 24 z "},"/":{"ha":567,"x_min":56,"x_max":511,"o":"m 150 -64 l 56 -64 l 417 894 l 511 894 l 150 -64 z "},":":{"ha":397,"x_min":111,"x_max":342,"o":"m 111 86 q 138 178 111 149 q 226 207 164 207 q 317 178 293 207 q 342 86 342 149 q 315 -5 342 24 q 226 -33 289 -33 q 138 -5 164 -33 q 111 86 111 24 m 111 513 q 138 604 111 575 q 226 633 164 633 q 317 604 293 633 q 342 513 342 575 q 315 422 342 450 q 226 393 289 393 q 138 422 164 393 q 111 513 111 450 z "},";":{"ha":397,"x_min":111,"x_max":342,"o":"m 111 513 q 138 604 111 575 q 226 633 164 633 q 317 604 293 633 q 342 513 342 575 q 315 422 342 450 q 226 393 289 393 q 138 422 164 393 q 111 513 111 450 m 111 86 q 138 178 111 149 q 226 207 164 207 q 317 178 293 207 q 342 86 342 149 q 338 -38 342 11 q 315 -118 333 -87 q 256 -161 296 -149 q 144 -174 217 -174 l 144 -107 l 156 -107 q 239 -92 214 -107 q 267 -29 264 -76 q 226 -33 247 -33 q 138 -5 164 -33 q 111 86 111 24 z "},"<":{"ha":543,"x_min":42,"x_max":460,"o":"m 411 625 l 457 558 l 186 371 l 460 181 l 411 111 l 42 368 l 411 625 z "},"=":{"ha":656,"x_min":83,"x_max":572,"o":"m 572 549 l 572 468 l 83 468 l 83 549 l 572 549 m 572 326 l 572 246 l 83 246 l 83 326 l 572 326 z "},">":{"ha":543,"x_min":83,"x_max":501,"o":"m 132 111 l 86 178 l 356 365 l 83 556 l 132 625 l 501 368 l 132 111 z "},"?":{"ha":547,"x_min":28,"x_max":519,"o":"m 146 86 q 172 178 146 149 q 261 207 199 207 q 352 178 328 207 q 376 86 376 149 q 350 -5 376 24 q 261 -33 324 -33 q 172 -5 199 -33 q 146 86 146 24 m 221 275 l 221 408 q 249 450 236 425 q 268 504 260 471 q 276 582 276 538 q 274 646 276 617 q 269 697 272 675 q 263 743 265 722 q 153 726 196 743 q 111 664 111 710 l 111 628 l 28 628 l 28 665 q 54 747 28 717 q 119 792 81 776 q 201 812 157 807 q 283 817 246 817 q 396 799 350 817 q 469 751 442 782 q 508 679 496 721 q 519 590 519 638 q 506 501 519 543 q 463 428 492 460 q 392 379 435 397 q 294 361 350 361 l 294 275 l 221 275 z "},"@":{"ha":1161,"x_min":97,"x_max":1071,"o":"m 825 131 l 839 131 q 953 190 925 131 q 982 361 982 250 q 886 615 982 529 q 596 701 790 701 q 424 675 500 701 q 296 599 349 649 q 215 475 243 549 q 186 306 186 401 q 272 15 186 115 q 540 -86 358 -86 q 610 -83 575 -86 q 674 -71 646 -79 q 721 -49 703 -62 q 739 -17 739 -36 l 739 0 l 825 0 l 825 -15 q 804 -79 825 -51 q 745 -126 783 -107 q 654 -155 707 -144 q 539 -165 601 -165 q 208 -44 318 -165 q 97 307 97 78 q 131 509 97 421 q 230 658 165 597 q 387 749 294 718 q 594 781 479 781 q 949 678 828 781 q 1071 363 1071 575 q 1059 242 1071 297 q 1019 146 1047 186 q 945 82 992 106 q 829 58 899 58 q 711 72 765 58 q 629 114 657 86 q 560 73 597 88 q 482 58 524 58 q 340 116 389 58 q 290 313 290 174 q 304 431 290 383 q 349 510 318 479 q 431 553 381 540 q 554 567 481 567 q 633 560 596 567 q 693 547 671 553 l 825 553 l 825 131 m 606 501 q 593 503 599 503 q 582 504 588 504 q 563 503 571 504 q 547 500 554 501 q 535 497 540 499 q 526 447 531 475 q 521 390 524 424 q 518 313 518 356 q 521 226 518 260 q 526 171 524 192 q 535 133 531 146 q 606 167 569 133 l 606 501 z "},"A":{"ha":872,"x_min":14,"x_max":858,"o":"m 107 81 l 368 831 l 546 863 l 858 29 l 858 0 l 606 0 l 507 274 l 260 274 l 193 81 l 343 81 l 343 0 l 14 0 l 14 81 l 107 81 m 288 354 l 478 354 l 382 622 l 288 354 z "},"B":{"ha":888,"x_min":35,"x_max":825,"o":"m 158 81 l 158 774 l 35 774 l 35 854 l 354 854 q 401 856 379 854 q 446 857 424 857 q 710 809 625 857 q 796 643 796 761 q 755 517 796 561 q 653 454 714 472 q 783 380 740 432 q 825 236 825 328 q 803 125 825 171 q 739 51 782 79 q 629 10 696 22 q 474 -3 563 -3 q 422 -1 450 -3 q 363 0 394 0 l 35 0 l 35 81 l 158 81 m 392 417 l 392 71 q 474 67 426 67 q 502 67 489 67 q 525 69 515 68 q 544 74 536 71 q 556 119 550 94 q 563 172 560 142 q 567 240 567 201 q 562 309 567 276 q 551 365 557 342 q 538 417 546 393 l 392 417 m 446 786 q 392 782 417 786 l 392 489 l 535 489 q 540 533 538 508 q 545 581 543 554 q 547 640 547 608 q 544 698 547 672 q 536 743 540 724 q 526 781 531 764 q 503 783 517 782 q 476 785 492 785 q 446 786 461 786 z "},"C":{"ha":794,"x_min":63,"x_max":746,"o":"m 717 571 q 581 604 631 571 q 505 679 531 638 q 471 758 479 721 q 463 806 463 796 q 420 803 439 804 q 389 799 401 801 q 363 793 374 796 q 342 686 350 744 q 328 569 335 636 q 322 428 322 503 q 328 285 322 351 q 342 169 335 219 q 363 61 350 111 q 385 56 371 58 q 456 51 407 51 q 540 62 501 51 q 606 95 578 72 q 649 155 633 118 q 665 243 665 192 l 665 286 l 746 286 l 746 247 q 722 126 746 176 q 658 42 699 75 q 566 -6 618 10 q 456 -21 514 -21 q 282 3 356 -21 q 159 82 208 28 q 86 222 110 136 q 63 428 63 307 q 87 633 63 549 q 162 772 111 718 q 291 851 213 826 q 478 875 369 875 q 568 872 525 875 q 644 864 611 868 q 717 854 683 858 l 717 571 z "},"D":{"ha":986,"x_min":35,"x_max":924,"o":"m 210 854 q 272 856 233 854 q 351 858 310 857 q 435 860 393 858 q 507 861 476 861 q 694 839 615 861 q 824 765 774 817 q 899 631 875 714 q 924 428 924 549 q 899 224 924 307 q 824 90 875 140 q 694 17 774 39 q 507 -6 615 -6 q 426 -5 468 -6 q 343 -3 383 -4 q 267 -1 303 -1 q 210 0 232 0 l 35 0 l 35 81 l 158 81 l 158 774 l 35 774 l 35 854 l 210 854 m 392 792 l 392 67 l 558 67 q 596 68 581 67 q 624 71 613 69 q 643 175 635 118 q 657 288 650 224 q 664 428 664 353 q 657 570 664 506 q 643 682 650 635 q 624 782 635 738 q 596 786 613 783 q 559 790 581 789 q 507 792 538 792 l 392 792 z "},"E":{"ha":857,"x_min":35,"x_max":788,"o":"m 767 854 l 767 571 q 652 593 697 571 q 578 647 607 615 q 536 714 550 679 q 517 774 522 749 l 392 774 l 392 465 l 635 465 l 635 385 l 392 385 l 392 81 l 538 81 q 557 140 543 106 q 599 207 571 175 q 672 262 626 239 q 788 285 718 285 l 788 0 l 35 0 l 35 81 l 158 81 l 158 774 l 35 774 l 35 854 l 767 854 z "},"F":{"ha":781,"x_min":35,"x_max":753,"o":"m 753 854 l 753 550 q 637 575 683 550 q 563 635 590 600 q 521 709 535 671 q 503 774 507 747 l 392 774 l 392 438 l 621 438 l 621 357 l 392 357 l 392 81 l 518 81 l 518 0 l 35 0 l 35 81 l 158 81 l 158 357 l 35 357 l 35 438 l 158 438 l 158 774 l 35 774 l 35 854 l 753 854 z "},"G":{"ha":918,"x_min":63,"x_max":842,"o":"m 828 571 q 695 602 744 571 q 619 674 646 633 q 583 751 592 714 q 574 803 575 789 q 522 806 547 806 l 478 806 q 429 803 450 806 q 393 799 408 801 q 363 793 376 796 q 342 686 350 744 q 328 569 335 636 q 322 428 322 503 q 328 285 322 351 q 342 169 335 219 q 363 61 350 111 q 396 54 378 57 q 432 50 411 51 q 478 49 453 49 q 540 54 506 49 q 608 74 575 60 l 608 336 l 528 336 l 528 417 l 842 417 l 842 6 l 676 24 q 574 -10 628 0 q 478 -21 521 -21 q 291 3 369 -21 q 162 82 213 28 q 87 222 111 136 q 63 428 63 307 q 87 633 63 549 q 162 772 111 718 q 291 851 213 826 q 478 875 369 875 q 585 872 525 875 q 700 864 646 868 q 828 854 764 858 l 828 571 z "},"H":{"ha":1022,"x_min":35,"x_max":988,"o":"m 988 854 l 988 774 l 864 774 l 864 81 l 988 81 l 988 0 l 631 0 l 631 385 l 392 385 l 392 81 l 493 81 l 493 0 l 35 0 l 35 81 l 158 81 l 158 774 l 35 774 l 35 854 l 461 854 l 461 774 l 392 774 l 392 465 l 631 465 l 631 774 l 561 774 l 561 854 l 988 854 z "},"I":{"ha":550,"x_min":35,"x_max":515,"o":"m 515 854 l 515 774 l 392 774 l 392 81 l 515 81 l 515 0 l 35 0 l 35 81 l 158 81 l 158 774 l 35 774 l 35 854 l 515 854 z "},"J":{"ha":692,"x_min":-21,"x_max":664,"o":"m 261 328 l 261 247 l 168 247 l 168 169 q 172 133 168 151 q 185 101 176 115 q 210 77 194 86 q 247 68 225 68 l 307 68 l 307 774 l 183 774 l 183 854 l 664 854 l 664 774 l 540 774 l 540 181 q 526 88 540 125 q 481 28 511 51 q 403 -4 450 6 q 290 -14 356 -14 q 188 -1 228 -14 q 124 34 147 11 q 90 91 100 57 q 81 167 81 125 l 81 247 l -21 247 l -21 328 l 261 328 z "},"K":{"ha":914,"x_min":35,"x_max":914,"o":"m 914 0 l 658 0 l 403 397 l 392 397 l 392 81 l 488 81 l 488 0 l 35 0 l 35 81 l 158 81 l 158 774 l 35 774 l 35 854 l 392 854 l 392 482 l 654 774 l 549 774 l 549 854 l 906 854 l 906 774 l 765 774 l 568 554 l 914 29 l 914 0 z "},"L":{"ha":788,"x_min":35,"x_max":746,"o":"m 35 0 l 35 81 l 158 81 l 158 774 l 35 774 l 35 854 l 515 854 l 515 774 l 392 774 l 392 81 l 508 81 q 522 143 511 106 q 560 215 533 181 q 631 274 586 250 q 746 299 675 299 l 746 0 l 35 0 z "},"M":{"ha":1185,"x_min":35,"x_max":1150,"o":"m 400 854 l 607 367 l 793 854 l 1150 854 l 1150 774 l 1026 774 l 1026 81 l 1150 81 l 1150 0 l 793 0 l 793 625 l 554 3 l 553 4 l 551 0 l 508 0 l 246 633 l 246 81 l 369 81 l 369 0 l 35 0 l 35 81 l 158 81 l 158 774 l 35 774 l 35 854 l 400 854 z "},"N":{"ha":925,"x_min":35,"x_max":911,"o":"m 247 854 l 700 396 l 700 774 l 576 774 l 576 854 l 911 854 l 911 774 l 788 774 l 788 0 l 744 0 l 246 525 l 246 81 l 369 81 l 369 0 l 35 0 l 35 81 l 158 81 l 158 774 l 35 774 l 35 854 l 247 854 z "},"O":{"ha":958,"x_min":63,"x_max":896,"o":"m 63 428 q 87 633 63 549 q 162 772 111 718 q 291 851 213 826 q 478 875 369 875 q 504 874 492 875 q 529 874 517 874 l 613 874 q 701 876 663 874 q 767 890 740 879 q 807 919 793 900 q 821 974 821 939 l 896 974 q 857 860 896 894 q 742 815 818 826 q 858 671 821 765 q 894 428 894 576 q 870 222 894 307 q 795 82 846 136 q 665 3 744 28 q 478 -21 586 -21 q 291 3 369 -21 q 162 82 213 28 q 87 222 111 136 q 63 428 63 307 m 322 428 q 328 282 322 349 q 342 167 335 215 q 363 61 350 110 q 393 54 376 57 q 429 50 408 51 q 478 49 450 49 q 528 50 506 49 q 565 54 550 51 q 594 61 582 57 q 614 171 606 113 q 628 287 621 221 q 635 428 635 353 q 628 572 635 506 q 614 688 621 639 q 594 793 606 744 q 564 799 581 796 q 527 803 549 801 q 478 806 506 806 q 429 803 450 806 q 393 799 408 801 q 363 793 376 796 q 342 683 350 742 q 328 567 335 633 q 322 428 322 501 z "},"P":{"ha":839,"x_min":35,"x_max":825,"o":"m 363 854 q 396 855 378 854 q 430 856 414 856 q 458 856 446 856 q 474 857 469 857 q 739 799 653 857 q 825 599 825 740 q 740 400 825 458 q 474 342 654 342 l 435 342 q 392 343 414 342 l 392 81 l 515 81 l 515 0 l 35 0 l 35 81 l 158 81 l 158 774 l 35 774 l 35 854 l 363 854 m 474 786 q 429 785 450 786 q 392 781 408 783 l 392 419 q 474 415 426 415 q 525 419 506 415 q 544 424 536 421 q 556 468 550 443 q 563 523 560 490 q 567 597 567 556 q 563 674 567 640 q 556 731 560 707 q 544 778 550 757 q 525 782 536 779 q 502 785 515 783 q 474 786 489 786 z "},"Q":{"ha":957,"x_min":63,"x_max":894,"o":"m 63 428 q 87 633 63 549 q 162 772 111 718 q 291 851 213 826 q 478 875 369 875 q 665 851 586 875 q 795 772 744 826 q 870 633 846 718 q 894 428 894 549 q 872 230 894 313 q 804 93 850 147 q 688 12 758 39 q 519 -19 617 -15 l 519 -108 q 533 -149 519 -137 q 565 -160 546 -160 q 599 -144 590 -160 q 608 -112 608 -129 l 608 -69 l 689 -69 l 689 -111 q 684 -147 689 -126 q 666 -185 679 -167 q 628 -217 653 -204 q 565 -231 604 -231 q 469 -198 499 -231 q 439 -108 439 -165 l 439 -19 q 269 12 340 -15 q 153 92 199 39 q 85 228 107 146 q 63 428 63 311 m 519 192 l 519 50 q 575 57 553 51 q 594 61 586 60 q 614 171 606 113 q 628 287 621 221 q 635 428 635 353 q 628 572 635 506 q 614 688 621 639 q 594 793 606 744 q 564 799 581 796 q 527 803 549 801 q 478 806 506 806 q 429 803 450 806 q 393 799 408 801 q 363 793 376 796 q 342 683 350 742 q 328 567 335 633 q 322 428 322 501 q 328 282 322 349 q 342 167 335 215 q 363 61 350 110 q 382 57 371 60 q 406 52 392 54 q 439 49 419 50 l 439 192 l 519 192 z "},"R":{"ha":903,"x_min":35,"x_max":900,"o":"m 158 81 l 158 774 l 35 774 l 35 854 l 354 854 q 409 856 379 854 q 446 857 439 857 q 711 799 626 857 q 796 622 796 740 q 756 492 796 540 q 657 421 717 444 l 900 29 l 900 0 l 644 0 l 415 389 l 392 389 l 392 81 l 488 81 l 488 0 l 35 0 l 35 81 l 158 81 m 446 786 q 392 782 417 786 l 392 451 l 535 451 q 540 504 538 476 q 545 558 543 528 q 547 619 547 588 q 544 681 547 651 q 536 732 540 710 q 526 781 531 757 q 503 783 517 782 q 476 785 492 785 q 446 786 461 786 z "},"S":{"ha":768,"x_min":69,"x_max":706,"o":"m 399 869 q 480 863 443 869 q 544 847 517 857 l 675 874 l 675 590 q 514 647 575 593 q 443 796 453 701 q 378 801 415 801 q 355 800 364 801 q 339 797 346 799 l 325 794 q 315 768 319 783 q 310 738 313 756 q 307 700 307 721 q 340 592 307 626 q 446 533 372 557 q 535 495 489 518 q 619 439 581 472 q 681 360 657 406 q 706 258 706 315 q 617 47 706 114 q 368 -21 528 -21 q 260 -13 300 -21 q 197 1 219 -6 l 81 -21 l 81 290 q 176 270 135 289 q 247 219 218 251 q 293 144 276 188 q 313 50 310 101 q 333 49 324 49 l 357 49 q 387 49 371 49 q 417 51 403 50 q 449 54 432 53 q 457 79 453 64 q 463 111 460 92 q 465 158 465 131 q 436 256 465 219 q 363 319 407 293 q 267 368 318 346 q 172 421 217 390 q 99 497 128 451 q 69 617 69 543 q 86 717 69 671 q 141 797 103 763 q 242 850 179 831 q 399 869 306 869 z "},"T":{"ha":914,"x_min":49,"x_max":865,"o":"m 865 854 l 865 592 q 756 612 797 592 q 692 660 715 632 q 661 719 669 688 q 651 774 653 750 l 574 774 l 574 81 l 697 81 l 697 0 l 217 0 l 217 81 l 340 81 l 340 774 l 261 774 q 252 719 260 750 q 222 660 244 688 q 157 612 199 632 q 49 592 115 592 l 49 854 l 865 854 z "},"U":{"ha":925,"x_min":28,"x_max":918,"o":"m 151 774 l 28 774 l 28 854 l 385 854 l 385 194 q 388 147 385 171 q 394 103 390 122 q 404 58 399 79 q 424 54 408 56 q 457 52 435 53 q 515 51 479 51 q 645 81 597 51 q 693 181 693 110 l 693 774 l 549 774 l 549 854 l 918 854 l 918 774 l 781 774 l 781 181 q 756 81 781 119 q 689 19 731 42 q 592 -12 647 -3 q 478 -21 538 -21 q 344 -12 404 -21 q 240 19 283 -4 q 174 81 197 42 q 151 181 151 119 l 151 774 z "},"V":{"ha":865,"x_min":14,"x_max":858,"o":"m 764 774 l 479 -19 l 444 -19 l 14 825 l 14 854 l 267 854 l 524 346 l 678 774 l 529 774 l 529 854 l 858 854 l 858 774 l 764 774 z "},"W":{"ha":1289,"x_min":7,"x_max":1282,"o":"m 1190 774 l 931 -19 l 896 -19 l 628 542 l 444 -19 l 410 -19 l 7 825 l 7 854 l 260 854 l 483 363 l 576 649 l 493 825 l 493 854 l 746 854 l 969 363 l 1104 774 l 953 774 l 953 854 l 1282 854 l 1282 774 l 1190 774 z "},"X":{"ha":869,"x_min":21,"x_max":863,"o":"m 719 774 l 536 514 l 863 31 l 863 0 l 568 0 l 361 314 l 215 81 l 350 81 l 350 0 l 21 0 l 21 81 l 115 81 l 310 390 l 25 824 l 25 854 l 307 854 l 486 588 l 618 774 l 490 774 l 490 854 l 819 854 l 819 774 l 719 774 z "},"Y":{"ha":831,"x_min":21,"x_max":817,"o":"m 21 854 l 274 854 l 490 461 l 629 774 l 488 774 l 488 854 l 817 854 l 817 774 l 714 774 l 526 357 l 526 81 l 650 81 l 650 0 l 169 0 l 169 81 l 293 81 l 293 351 l 21 825 l 21 854 z "},"Z":{"ha":824,"x_min":76,"x_max":761,"o":"m 76 25 l 461 788 l 292 788 q 285 733 292 767 q 256 669 278 700 q 191 615 233 638 q 78 592 149 592 l 78 854 l 744 854 l 744 828 l 369 67 l 535 67 q 544 128 536 90 q 576 201 553 165 q 644 264 600 238 q 761 290 689 290 l 761 0 l 76 0 l 76 25 z "},"[":{"ha":531,"x_min":69,"x_max":426,"o":"m 426 894 l 426 814 l 303 814 l 303 -65 l 426 -65 l 426 -146 l 69 -146 l 69 894 l 426 894 z "},"\\":{"ha":567,"x_min":56,"x_max":511,"o":"m 56 894 l 150 894 l 511 -64 l 417 -64 l 56 894 z "},"]":{"ha":531,"x_min":104,"x_max":461,"o":"m 104 -146 l 104 -65 l 228 -65 l 228 814 l 104 814 l 104 894 l 461 894 l 461 -146 l 104 -146 z "},"^":{"ha":722,"x_min":104,"x_max":618,"o":"m 375 854 l 618 504 l 549 456 l 358 728 l 171 458 l 104 504 l 347 854 l 375 854 z "},"_":{"ha":611,"x_min":0,"x_max":611,"o":"m 611 -108 l 611 -189 l 0 -189 l 0 -108 l 611 -108 z "},"`":{"ha":722,"x_min":193,"x_max":531,"o":"m 531 714 l 496 675 l 222 826 q 193 886 193 851 q 201 919 193 903 q 220 948 208 935 q 247 969 232 961 q 278 976 263 976 q 329 957 306 976 l 531 714 z "},"a":{"ha":717,"x_min":69,"x_max":696,"o":"m 622 69 l 640 69 q 665 71 653 69 l 696 74 l 696 7 q 647 0 671 3 q 606 -4 628 -3 q 569 -6 583 -6 q 467 19 501 -6 q 417 74 432 44 q 347 12 386 35 q 256 -11 307 -11 q 115 24 161 -11 q 69 147 69 60 q 70 206 69 178 q 74 254 71 233 q 79 299 76 279 l 401 378 q 399 452 400 418 q 396 510 397 486 q 392 560 393 538 q 379 563 388 561 q 358 565 372 564 q 325 567 344 567 q 301 566 313 567 q 279 564 290 565 q 265 517 275 544 q 235 466 256 490 q 180 424 214 442 q 93 407 146 407 l 93 617 q 183 625 138 621 q 269 631 224 628 q 358 633 315 633 q 501 618 449 633 q 580 565 553 603 q 615 465 607 528 q 622 310 622 403 l 622 69 m 300 64 q 353 99 328 71 q 403 168 379 128 l 403 315 l 297 286 q 293 241 294 264 q 292 196 292 218 q 292 144 292 168 q 296 103 293 121 q 300 64 297 82 z "},"b":{"ha":776,"x_min":7,"x_max":728,"o":"m 7 854 l 89 854 l 308 894 l 308 560 q 394 613 347 593 q 492 632 440 632 q 593 615 549 632 q 667 559 638 597 q 713 459 697 521 q 728 310 728 397 q 711 159 728 221 q 656 59 694 97 q 555 4 617 21 q 404 -12 493 -12 q 303 -3 351 -12 q 228 13 256 6 l 89 6 l 89 785 l 7 785 l 7 854 m 475 557 q 385 527 429 557 q 308 453 342 497 l 308 63 q 357 53 332 56 q 404 50 382 50 q 457 54 438 50 q 475 58 468 56 q 488 129 482 90 q 496 209 492 163 q 500 310 500 256 q 496 423 500 376 q 488 500 492 469 q 475 557 482 536 z "},"c":{"ha":618,"x_min":49,"x_max":583,"o":"m 564 410 q 470 430 506 410 q 414 476 435 450 q 385 530 393 503 q 375 571 376 557 l 342 571 q 325 569 332 571 q 313 567 318 568 q 301 563 307 564 q 289 490 294 529 q 280 410 283 457 q 276 310 276 364 q 280 210 276 256 q 289 131 283 164 q 301 60 294 92 q 317 56 307 57 q 336 53 324 54 q 367 53 349 53 q 425 58 397 53 q 473 78 453 64 q 505 118 493 93 q 517 182 517 143 l 583 182 q 561 76 583 115 q 505 17 539 38 q 431 -8 471 -3 q 358 -14 392 -14 q 215 3 274 -14 q 119 59 156 21 q 65 159 82 97 q 49 310 49 221 q 63 460 49 399 q 114 560 78 522 q 210 616 150 599 q 364 633 271 633 q 433 632 397 633 q 497 628 468 631 q 564 624 532 625 l 564 410 z "},"d":{"ha":789,"x_min":49,"x_max":761,"o":"m 386 854 l 468 854 l 688 894 l 688 69 l 706 69 q 731 71 718 69 l 761 74 l 761 7 q 713 0 736 3 q 671 -4 693 -3 q 635 -6 649 -6 q 532 19 567 -6 q 482 74 497 44 q 391 11 442 33 q 285 -11 340 -11 q 183 6 228 -11 q 109 62 139 24 q 64 162 79 100 q 49 311 49 224 q 65 462 49 400 q 121 562 82 524 q 221 617 160 600 q 372 633 282 633 q 421 631 397 633 l 468 625 l 468 785 l 386 785 l 386 854 m 301 64 q 391 93 347 64 q 468 167 435 122 l 468 557 q 419 567 444 564 q 372 571 393 571 q 342 569 354 571 q 319 567 329 568 q 301 563 308 564 q 289 490 294 529 q 280 411 283 457 q 276 311 276 365 q 280 198 276 244 q 289 121 283 151 q 301 64 294 85 z "},"e":{"ha":675,"x_min":49,"x_max":626,"o":"m 364 633 q 490 619 440 633 q 571 572 540 604 q 614 488 601 540 q 626 360 626 436 q 625 319 626 336 q 622 290 624 301 q 619 269 621 276 l 276 269 q 282 184 278 222 q 290 118 286 146 q 301 60 296 85 q 314 56 306 57 q 334 53 321 54 q 368 53 347 53 q 434 58 403 53 q 489 74 465 63 q 526 105 513 85 q 539 154 539 125 l 614 154 q 588 63 614 96 q 524 12 563 29 q 442 -10 486 -6 q 358 -14 397 -14 q 215 3 274 -14 q 119 59 156 21 q 65 159 82 97 q 49 310 49 221 q 63 460 49 399 q 114 560 78 522 q 210 616 150 599 q 364 633 271 633 m 301 563 q 289 496 294 532 q 281 422 285 464 q 276 329 276 379 l 411 329 q 404 431 408 388 q 394 504 400 475 q 382 563 389 539 q 372 567 378 564 q 359 569 367 568 q 342 571 351 571 q 325 569 332 571 q 313 567 318 568 q 301 563 307 564 z "},"f":{"ha":513,"x_min":28,"x_max":518,"o":"m 518 679 q 425 699 461 679 q 368 744 389 718 q 339 797 347 771 q 329 839 331 824 l 282 839 q 278 814 279 829 q 274 731 274 786 q 299 653 274 682 q 368 624 324 624 l 476 624 l 476 553 l 329 553 l 329 71 l 411 71 l 411 0 l 28 0 l 28 71 l 110 71 l 110 678 q 124 767 110 725 q 166 839 138 808 q 238 887 194 869 q 340 904 282 904 q 422 901 375 904 q 518 893 468 897 l 518 679 z "},"g":{"ha":747,"x_min":56,"x_max":740,"o":"m 524 -158 l 579 -158 q 637 -149 625 -158 q 649 -118 649 -140 l 649 -97 l 292 -97 q 179 -87 225 -97 q 106 -55 133 -76 q 67 1 79 -33 q 56 82 56 35 q 65 144 56 118 q 90 189 75 171 q 122 218 104 207 q 154 235 139 229 q 91 303 110 260 q 72 414 72 347 q 88 516 72 474 q 140 584 104 558 q 235 622 176 610 q 378 633 293 633 l 544 633 q 599 639 579 633 q 629 656 619 644 q 641 685 639 668 q 643 728 643 703 l 718 728 q 694 619 718 653 q 626 574 671 586 q 683 414 683 522 q 667 311 683 353 q 615 244 651 269 q 521 206 579 218 q 378 194 463 194 q 228 207 288 194 q 194 195 211 203 q 161 176 176 188 q 136 149 146 164 q 126 114 126 133 l 529 114 q 692 72 644 114 q 740 -60 740 29 q 733 -136 740 -104 q 709 -189 726 -168 q 660 -220 692 -210 q 578 -231 628 -231 l 524 -231 l 524 -158 m 300 414 q 303 353 300 381 q 310 306 306 325 q 319 263 314 282 q 335 260 326 261 q 352 258 342 258 q 376 257 363 257 q 401 258 390 257 q 419 260 413 258 q 435 263 428 261 q 444 306 439 282 q 451 353 447 325 q 454 414 454 381 q 451 474 454 446 q 444 522 447 503 q 435 565 439 546 l 418 568 q 400 570 411 569 q 376 571 389 571 q 352 570 363 571 q 335 568 342 569 q 319 565 326 567 q 310 522 314 546 q 303 474 306 503 q 300 414 300 446 z "},"h":{"ha":824,"x_min":35,"x_max":810,"o":"m 35 854 l 117 854 l 336 894 l 336 554 q 381 593 353 576 q 444 621 404 608 q 543 633 483 633 q 608 628 575 633 q 667 608 640 622 q 711 568 694 593 q 728 503 728 543 l 728 71 l 810 71 l 810 0 l 508 0 l 508 547 q 500 549 506 547 q 469 551 489 551 q 417 540 440 551 q 378 513 394 528 q 351 481 361 497 q 336 457 340 465 l 336 71 l 418 71 l 418 0 l 35 0 l 35 71 l 117 71 l 117 785 l 35 785 l 35 854 z "},"i":{"ha":453,"x_min":42,"x_max":425,"o":"m 42 613 l 124 613 l 343 646 l 343 71 l 425 71 l 425 0 l 42 0 l 42 71 l 124 71 l 124 543 l 42 543 l 42 613 m 124 829 q 149 916 124 888 q 233 944 174 944 q 319 916 296 944 q 343 829 343 888 q 317 742 343 769 q 233 715 292 715 q 149 742 174 715 q 124 829 124 769 z "},"j":{"ha":429,"x_min":14,"x_max":339,"o":"m 38 613 l 119 613 l 339 646 l 339 -54 q 315 -134 339 -107 q 231 -182 292 -161 l 38 -249 l 14 -178 l 119 -140 l 119 543 l 38 543 l 38 613 m 119 829 q 144 916 119 888 q 229 944 169 944 q 315 916 292 944 q 339 829 339 888 q 313 742 339 769 q 229 715 288 715 q 144 742 169 715 q 119 829 119 769 z "},"k":{"ha":789,"x_min":35,"x_max":810,"o":"m 400 331 l 336 331 l 336 71 l 418 71 l 418 0 l 35 0 l 35 71 l 117 71 l 117 785 l 35 785 l 35 854 l 117 854 l 336 894 l 336 406 l 432 406 q 524 422 497 406 q 551 489 551 438 l 551 553 l 440 553 l 440 624 l 771 624 l 771 553 l 639 553 l 639 471 q 608 379 639 414 l 744 69 l 761 69 q 783 71 772 69 q 810 74 796 72 l 810 7 q 769 0 793 3 q 719 -4 750 -3 q 647 -6 689 -6 q 593 0 615 -6 q 556 16 571 6 q 530 41 540 26 q 511 75 519 56 l 400 331 z "},"l":{"ha":483,"x_min":14,"x_max":469,"o":"m 14 854 l 96 854 l 315 894 l 315 69 q 384 97 369 69 q 399 192 399 125 l 469 192 q 465 113 469 149 q 441 50 461 76 q 379 9 421 24 q 263 -6 338 -6 q 178 10 211 -6 q 128 47 146 25 q 103 91 110 68 q 96 129 96 114 l 96 785 l 14 785 l 14 854 z "},"m":{"ha":1188,"x_min":42,"x_max":1167,"o":"m 42 599 l 124 599 l 333 639 l 333 546 q 353 569 339 554 q 392 599 368 585 q 449 623 415 613 q 529 633 483 633 q 583 629 556 633 q 635 615 611 625 q 679 589 660 606 q 707 546 699 572 q 724 566 711 551 q 759 596 736 581 q 817 622 782 611 q 900 633 851 633 q 965 628 932 633 q 1024 608 997 622 q 1068 568 1051 593 q 1085 503 1085 543 l 1085 71 l 1167 71 l 1167 0 l 865 0 l 865 547 l 861 549 q 853 551 858 550 q 836 551 847 551 q 792 539 813 551 q 756 510 772 526 q 729 478 740 494 q 714 456 718 463 l 714 71 l 796 71 l 796 0 l 494 0 l 494 547 l 490 549 q 482 551 488 550 q 465 551 476 551 q 422 539 442 551 q 385 510 401 526 q 358 478 369 494 q 343 456 347 463 l 343 71 l 425 71 l 425 0 l 42 0 l 42 71 l 124 71 l 124 529 l 42 529 l 42 599 z "},"n":{"ha":838,"x_min":42,"x_max":817,"o":"m 42 599 l 124 599 l 333 639 l 333 542 q 349 561 336 546 q 386 592 361 576 q 451 621 411 608 q 550 633 492 633 q 615 628 582 633 q 674 608 647 622 q 718 568 701 593 q 735 503 735 543 l 735 71 l 817 71 l 817 0 l 515 0 l 515 547 q 507 549 513 547 q 476 551 496 551 q 424 540 447 551 q 385 513 401 528 q 358 481 368 497 q 343 457 347 465 l 343 71 l 425 71 l 425 0 l 42 0 l 42 71 l 124 71 l 124 529 l 42 529 l 42 599 z "},"o":{"ha":744,"x_min":49,"x_max":696,"o":"m 276 310 q 280 209 276 256 q 289 129 283 163 q 301 57 294 89 q 319 53 308 54 q 372 49 338 49 q 425 53 406 49 q 443 57 436 54 q 456 129 450 89 q 464 209 460 163 q 468 310 468 256 q 464 410 468 364 q 456 490 460 456 q 443 563 450 529 q 424 567 435 564 q 401 569 414 568 q 372 571 388 571 q 342 569 354 571 q 319 567 329 568 q 301 563 308 564 q 289 490 294 529 q 280 410 283 456 q 276 310 276 364 m 49 310 q 65 460 49 399 q 121 560 82 522 q 221 616 160 599 q 372 633 282 633 q 523 616 461 633 q 624 560 585 599 q 679 460 663 522 q 696 310 696 399 q 679 159 696 221 q 624 59 663 97 q 523 3 585 21 q 372 -14 461 -14 q 221 3 282 -14 q 121 59 160 21 q 65 159 82 97 q 49 310 49 221 z "},"p":{"ha":803,"x_min":35,"x_max":754,"o":"m 35 599 l 117 599 l 326 639 l 326 551 q 415 610 367 589 q 518 632 464 632 q 619 615 575 632 q 694 559 664 597 q 739 459 724 521 q 754 310 754 397 q 738 159 754 221 q 682 59 721 97 q 581 4 643 21 q 431 -12 519 -12 q 382 -10 406 -12 q 336 -4 358 -7 l 336 -229 l 35 -229 l 35 -158 l 117 -158 l 117 529 l 35 529 l 35 599 m 501 557 q 413 528 456 557 q 336 456 369 499 l 336 63 q 385 53 360 56 q 431 50 410 50 q 483 54 464 50 q 501 58 494 56 q 514 129 508 90 q 522 209 518 163 q 526 310 526 256 q 522 423 526 376 q 514 500 518 469 q 501 557 508 536 z "},"q":{"ha":771,"x_min":49,"x_max":688,"o":"m 386 -158 l 468 -158 l 468 61 q 383 8 429 28 q 285 -11 336 -11 q 183 6 228 -11 q 109 62 139 24 q 64 162 79 100 q 49 311 49 224 q 65 462 49 400 q 121 562 82 524 q 221 617 160 600 q 372 633 282 633 q 473 624 425 633 q 549 607 521 614 l 688 615 l 688 -229 l 386 -229 l 386 -158 m 301 64 q 391 93 347 64 q 468 167 435 122 l 468 558 q 419 567 444 564 q 372 571 393 571 q 342 569 354 571 q 319 567 329 568 q 301 563 308 564 q 289 490 294 529 q 280 411 283 457 q 276 311 276 365 q 280 198 276 244 q 289 121 283 151 q 301 64 294 85 z "},"r":{"ha":618,"x_min":42,"x_max":597,"o":"m 42 599 l 124 599 l 333 639 l 333 550 q 344 567 335 554 q 373 595 353 581 q 426 622 393 610 q 508 633 458 633 q 556 632 539 633 q 583 629 574 631 q 597 626 594 628 l 597 358 q 514 378 547 358 q 460 426 481 397 q 428 488 439 456 q 413 544 417 519 q 389 526 400 538 q 369 501 378 514 q 353 476 360 488 q 343 457 346 464 l 343 71 l 425 71 l 425 0 l 42 0 l 42 71 l 124 71 l 124 529 l 42 529 l 42 599 z "},"s":{"ha":635,"x_min":63,"x_max":593,"o":"m 344 631 q 403 626 376 631 q 450 614 429 621 l 543 635 l 543 421 q 456 437 490 421 q 401 476 422 453 q 370 524 381 499 q 356 568 360 550 l 344 568 q 323 567 332 568 q 307 565 314 567 q 296 563 300 564 q 289 549 292 557 q 285 529 286 542 q 283 500 283 517 q 289 457 283 474 q 306 429 294 440 q 338 411 318 418 q 386 396 357 404 q 460 372 424 386 q 526 333 497 357 q 574 274 556 310 q 593 189 593 239 q 574 95 593 133 q 519 33 554 57 q 431 -1 483 10 q 315 -11 379 -11 q 227 -6 263 -11 q 171 6 192 -1 l 75 -15 l 75 213 q 161 194 126 213 q 217 151 196 176 q 247 99 238 126 q 261 53 257 72 q 276 51 269 51 l 317 51 q 339 53 329 51 q 360 56 350 54 q 365 71 363 61 q 370 93 368 79 q 372 126 372 107 q 349 190 372 167 q 292 230 326 214 q 217 260 257 246 q 143 297 178 275 q 85 353 108 318 q 63 449 63 389 q 77 524 63 490 q 124 582 92 558 q 211 618 157 606 q 344 631 265 631 z "},"t":{"ha":511,"x_min":90,"x_max":490,"o":"m 90 688 l 310 747 l 310 624 l 476 624 l 476 554 l 310 554 l 310 69 l 339 69 q 419 192 419 69 l 490 192 q 485 111 490 147 q 459 49 481 75 q 395 8 438 22 q 278 -6 353 -6 q 190 6 226 -6 q 132 38 154 18 q 100 81 110 57 q 90 129 90 104 l 90 688 z "},"u":{"ha":806,"x_min":21,"x_max":778,"o":"m 21 599 l 103 599 l 313 639 l 313 76 q 321 74 315 75 q 351 72 326 72 q 403 84 381 72 q 442 111 425 96 q 469 142 458 126 q 485 165 481 157 l 485 624 l 704 624 l 704 69 l 722 69 q 747 71 735 69 l 778 74 l 778 7 q 729 0 753 3 q 688 -4 710 -3 q 651 -6 665 -6 q 589 2 615 -6 q 544 22 563 10 q 513 51 525 35 q 494 82 500 67 q 479 63 492 78 q 441 31 467 47 q 376 3 415 15 q 278 -10 336 -10 q 213 -4 246 -10 q 153 16 181 1 q 110 56 126 31 q 93 121 93 81 l 93 529 l 21 529 l 21 599 z "},"v":{"ha":738,"x_min":-21,"x_max":751,"o":"m -21 624 l 269 624 l 449 267 l 574 553 l 463 553 l 463 624 l 751 624 l 751 553 l 654 553 l 399 -42 l 369 -42 l 54 553 l -21 553 l -21 624 z "},"w":{"ha":1019,"x_min":-21,"x_max":1033,"o":"m -21 624 l 257 624 l 418 283 l 490 431 l 411 596 l 411 624 l 615 624 l 772 278 l 861 553 l 758 553 l 758 624 l 1033 624 l 1033 553 l 946 553 l 746 -42 l 717 -42 l 538 332 l 357 -42 l 328 -42 l 50 553 l -21 553 l -21 624 z "},"x":{"ha":732,"x_min":14,"x_max":725,"o":"m 14 624 l 296 624 l 433 431 l 515 553 l 432 553 l 432 624 l 693 624 l 693 553 l 610 553 l 482 364 l 725 26 l 725 0 l 476 0 l 310 239 l 207 71 l 294 71 l 294 0 l 24 0 l 24 71 l 113 71 l 260 310 l 90 553 l 14 553 l 14 624 z "},"y":{"ha":738,"x_min":-21,"x_max":751,"o":"m -21 624 l 269 624 l 429 219 l 574 553 l 463 553 l 463 624 l 751 624 l 751 553 l 654 553 l 376 -97 q 349 -152 364 -128 q 316 -194 335 -176 q 272 -220 297 -211 q 210 -229 246 -229 q 148 -216 171 -229 q 113 -184 125 -203 q 97 -145 100 -165 q 93 -110 93 -125 l 93 -68 l 167 -68 l 167 -111 q 176 -143 167 -128 q 210 -158 185 -158 q 267 -132 247 -158 q 303 -69 288 -106 l 318 -33 l 49 553 l -21 553 l -21 624 z "},"z":{"ha":650,"x_min":49,"x_max":608,"o":"m 592 597 l 307 67 l 410 67 q 430 118 417 89 q 466 173 443 147 q 524 217 489 199 q 608 235 558 235 l 608 0 l 49 0 l 49 25 l 344 557 l 231 557 q 216 510 226 536 q 185 462 206 485 q 133 424 165 439 q 50 408 100 408 l 50 624 l 592 624 l 592 597 z "},"{":{"ha":590,"x_min":42,"x_max":528,"o":"m 42 390 l 163 474 q 158 576 158 529 q 178 710 158 650 q 243 817 199 771 q 358 896 288 864 q 528 944 428 928 l 528 860 q 468 845 493 854 q 426 826 443 836 q 392 801 407 815 q 383 744 388 776 q 378 679 381 717 q 375 596 375 642 q 365 546 375 568 q 338 506 354 524 q 303 474 322 489 q 264 446 283 458 l 169 382 l 269 308 q 306 281 288 296 q 340 248 325 265 q 365 209 356 231 q 375 161 375 188 q 378 77 375 114 q 383 13 381 40 q 392 -44 388 -19 q 426 -69 407 -58 q 468 -89 443 -79 q 528 -103 493 -99 l 528 -187 q 358 -139 428 -171 q 243 -60 288 -107 q 178 47 199 -14 q 158 181 158 107 q 159 227 158 199 q 163 283 160 256 l 42 368 l 42 390 z "},"|":{"ha":642,"x_min":278,"x_max":364,"o":"m 278 894 l 364 894 l 364 -64 l 278 -64 l 278 894 z "},"}":{"ha":590,"x_min":63,"x_max":549,"o":"m 549 368 l 428 283 q 431 227 431 256 q 432 181 432 199 q 412 47 432 107 q 347 -60 392 -14 q 233 -139 303 -107 q 63 -187 163 -171 l 63 -103 q 122 -89 96 -99 q 164 -69 147 -79 q 199 -44 183 -58 q 207 13 203 -19 q 213 77 210 40 q 215 161 215 114 q 225 209 215 188 q 250 248 235 231 q 284 281 265 265 q 321 308 303 296 l 421 382 l 326 446 q 288 474 307 458 q 252 506 268 489 q 226 546 236 524 q 215 596 215 568 q 213 679 215 642 q 207 744 210 717 q 199 801 203 776 q 164 826 183 815 q 122 845 147 836 q 63 860 96 854 l 63 944 q 233 896 163 928 q 347 817 303 864 q 412 710 392 771 q 432 576 432 650 q 428 474 432 529 l 549 390 l 549 368 z "},"~":{"ha":708,"x_min":69,"x_max":639,"o":"m 69 375 q 131 454 89 432 q 236 476 174 476 q 297 469 267 476 q 357 452 328 461 q 415 435 386 443 q 471 428 443 428 q 531 438 506 428 q 571 478 556 447 l 639 449 q 577 369 619 392 q 472 347 535 347 q 413 355 443 347 q 351 372 382 363 q 292 388 321 381 q 238 396 264 396 q 178 386 203 396 q 138 346 153 376 l 69 375 z "}," ":{"ha":222,"x_min":0,"x_max":0,"o":""},"¡":{"ha":433,"x_min":56,"x_max":294,"o":"m 138 325 l 211 325 l 294 -83 q 266 -178 294 -143 q 175 -214 238 -214 q 89 -178 117 -214 q 61 -83 61 -142 l 138 325 m 286 514 q 260 422 286 451 q 171 393 233 393 q 80 422 104 393 q 56 514 56 451 q 82 605 56 576 q 171 633 108 633 q 260 605 233 633 q 286 514 286 576 z "},"¢":{"ha":710,"x_min":69,"x_max":654,"o":"m 371 43 q 233 65 290 46 q 140 124 176 85 q 86 222 103 163 q 69 367 69 282 q 85 512 69 451 q 135 611 100 572 q 228 668 171 650 q 371 689 286 686 l 371 867 l 457 867 l 457 688 q 548 679 504 685 q 614 671 592 674 l 654 681 l 654 468 q 578 485 608 468 q 531 526 549 503 q 504 576 513 550 q 493 621 496 603 l 457 624 l 457 113 q 543 147 507 119 q 579 239 579 174 l 646 239 q 628 147 646 183 q 584 90 611 111 q 523 58 557 68 q 457 44 489 47 l 457 -92 l 371 -92 l 371 43 m 371 111 l 371 628 l 322 619 q 310 547 315 586 q 301 467 304 514 q 297 367 297 421 q 301 267 297 313 q 310 188 304 221 q 322 117 315 149 l 371 111 z "},"£":{"ha":857,"x_min":42,"x_max":801,"o":"m 192 475 q 222 630 199 565 q 288 735 244 694 q 399 795 332 776 q 561 814 465 814 q 645 810 608 814 q 707 803 682 807 q 758 793 736 797 l 758 510 q 626 541 675 510 q 549 613 576 572 q 514 692 522 654 q 504 742 506 729 l 446 732 l 446 665 q 447 585 446 633 q 447 475 447 538 l 642 475 l 642 394 l 447 394 q 415 187 444 264 q 319 71 385 110 l 519 71 q 664 117 607 71 q 721 264 721 163 l 721 307 l 801 307 l 801 268 q 778 147 801 197 q 714 63 754 96 q 622 15 674 31 q 511 0 569 0 l 60 0 l 60 71 l 161 71 q 174 164 168 113 q 182 266 178 208 q 188 394 186 324 l 42 394 l 42 475 l 192 475 z "},"¤":{"ha":872,"x_min":42,"x_max":831,"o":"m 42 47 l 179 185 q 113 400 113 268 q 179 614 113 531 l 42 753 l 101 814 l 243 672 q 436 724 322 724 q 629 672 550 724 l 771 814 l 831 753 l 693 614 q 760 400 760 531 q 693 185 760 268 l 831 47 l 771 -14 l 629 128 q 436 76 550 76 q 243 128 322 76 l 101 -14 l 42 47 m 207 401 q 266 217 207 276 q 436 157 325 157 q 606 217 547 157 q 665 401 665 276 q 606 583 665 524 q 436 643 547 643 q 266 584 325 643 q 207 401 207 525 z "},"¥":{"ha":831,"x_min":21,"x_max":817,"o":"m 21 801 l 274 801 l 493 442 l 626 721 l 488 721 l 488 801 l 817 801 l 817 721 l 713 721 l 549 382 l 689 382 l 689 301 l 526 301 l 526 257 l 689 257 l 689 176 l 526 176 l 526 81 l 650 81 l 650 0 l 169 0 l 169 81 l 293 81 l 293 176 l 131 176 l 131 257 l 293 257 l 293 301 l 131 301 l 131 382 l 261 382 l 21 772 l 21 801 z "},"¦":{"ha":642,"x_min":278,"x_max":364,"o":"m 278 894 l 364 894 l 364 464 l 278 464 l 278 894 m 278 374 l 364 374 l 364 -64 l 278 -64 l 278 374 z "},"§":{"ha":636,"x_min":69,"x_max":567,"o":"m 310 -133 q 231 -128 268 -133 q 167 -108 194 -122 q 123 -66 139 -93 q 107 4 107 -39 l 107 42 l 190 42 l 190 6 q 215 -42 190 -24 q 276 -60 240 -60 q 294 -59 285 -60 q 310 -57 303 -58 l 326 -54 q 332 -35 329 -46 q 337 -15 335 -26 q 339 11 339 -3 q 332 49 339 33 q 312 76 325 65 q 279 97 299 88 q 236 115 260 106 l 181 138 q 99 202 128 158 q 69 307 69 246 q 89 418 69 368 q 140 503 108 468 q 99 556 114 525 q 83 635 83 588 q 97 708 83 675 q 139 766 110 742 q 215 803 168 790 q 326 817 261 817 q 405 811 368 817 q 469 791 442 806 q 513 749 497 776 q 529 679 529 722 l 529 642 l 446 642 l 446 678 q 421 725 446 707 q 360 743 396 743 q 342 742 351 743 q 326 740 333 742 l 310 738 q 303 725 306 732 q 299 709 300 718 q 297 686 297 700 q 324 620 297 640 q 400 582 351 600 l 456 560 q 538 495 508 539 q 567 390 567 451 q 548 279 567 331 q 499 190 529 228 q 538 138 524 168 q 553 63 553 107 q 540 -14 553 22 q 497 -76 526 -50 q 422 -118 468 -103 q 310 -133 375 -133 m 196 469 q 168 432 181 456 q 156 386 156 408 q 208 339 172 363 q 288 296 243 315 l 443 226 q 469 267 457 242 q 481 311 481 292 q 428 358 464 335 q 349 401 393 382 l 196 469 z "},"¨":{"ha":722,"x_min":119,"x_max":601,"o":"m 119 829 q 142 908 119 882 q 218 933 165 933 q 296 908 275 933 q 317 829 317 882 q 294 751 317 776 q 218 726 271 726 q 142 751 165 726 q 119 829 119 776 m 404 829 q 427 908 404 882 q 503 933 450 933 q 581 908 560 933 q 601 829 601 882 q 578 751 601 776 q 503 726 556 726 q 427 751 450 726 q 404 829 404 776 z "},"©":{"ha":792,"x_min":69,"x_max":722,"o":"m 69 314 q 93 445 69 386 q 160 547 117 504 q 263 614 203 590 q 396 638 324 638 q 531 615 471 638 q 634 551 592 593 q 699 449 676 508 q 722 314 722 389 q 699 182 722 242 q 632 80 675 122 q 528 14 589 38 q 396 -10 468 -10 q 260 13 321 -10 q 158 77 200 35 q 92 179 115 119 q 69 314 69 239 m 164 315 q 224 131 164 190 q 396 71 285 71 q 564 134 500 71 q 628 315 628 197 q 567 497 628 438 q 396 557 507 557 q 228 495 292 557 q 164 315 164 433 m 400 442 q 393 407 396 426 q 389 367 390 390 q 388 315 388 343 q 389 266 388 289 q 393 225 390 243 q 400 188 396 204 l 431 188 q 468 203 456 188 q 481 257 481 218 l 531 257 q 502 170 531 200 q 403 140 474 140 q 278 179 315 140 q 242 315 242 218 q 249 397 242 364 q 276 451 257 431 q 329 481 296 472 q 413 490 363 490 q 450 489 431 490 q 485 485 469 488 q 519 479 503 482 l 519 356 q 472 366 490 356 q 442 391 453 376 q 426 421 431 406 q 419 447 421 436 l 400 442 z "},"ª":{"ha":597,"x_min":111,"x_max":528,"o":"m 482 544 l 494 544 q 510 546 503 544 q 528 547 518 546 l 528 494 q 496 489 511 492 q 467 485 482 486 q 440 485 451 485 q 376 497 403 485 q 332 525 349 508 q 287 492 313 504 q 228 481 261 481 q 141 507 171 481 q 111 578 111 533 q 112 613 111 597 q 114 643 113 629 q 117 672 115 658 l 307 718 q 306 760 306 742 q 304 790 306 778 q 303 817 303 806 q 296 818 301 817 q 268 821 285 821 l 258 821 q 250 819 254 821 q 240 786 247 804 q 217 751 232 768 q 180 724 203 735 q 124 713 157 713 l 124 864 q 192 869 157 867 q 253 874 221 872 q 314 875 286 875 q 404 865 371 875 q 455 833 438 856 q 477 772 472 810 q 482 676 482 733 l 482 544 m 276 553 q 307 578 290 557 l 307 661 l 275 653 q 273 626 274 639 q 272 600 272 613 q 274 561 272 568 q 276 553 275 556 z "},"«":{"ha":719,"x_min":83,"x_max":650,"o":"m 117 272 q 93 299 103 283 q 83 338 83 314 l 83 344 q 97 378 85 363 q 132 414 110 394 l 360 604 l 400 567 l 274 338 l 400 108 l 360 72 l 117 272 m 367 272 q 343 299 353 283 q 333 338 333 314 l 333 344 q 347 378 335 363 q 382 414 360 394 l 610 604 l 650 567 l 524 338 l 650 108 l 610 72 l 367 272 z "},"¬":{"ha":611,"x_min":56,"x_max":556,"o":"m 469 367 l 56 367 l 56 447 l 556 447 l 556 204 l 469 204 l 469 367 z "},"­":{"ha":544,"x_min":69,"x_max":475,"o":"m 475 447 l 475 367 l 69 367 l 69 447 l 475 447 z "},"®":{"ha":792,"x_min":69,"x_max":722,"o":"m 69 551 q 93 683 69 624 q 160 785 117 742 q 263 851 203 828 q 396 875 324 875 q 531 853 471 875 q 634 788 592 831 q 699 686 676 746 q 722 551 722 626 q 699 419 722 479 q 632 317 675 360 q 528 251 589 275 q 396 228 468 228 q 260 250 321 228 q 158 315 200 272 q 92 417 115 357 q 69 551 69 476 m 164 553 q 224 368 164 428 q 396 308 285 308 q 564 372 500 308 q 628 553 628 435 q 567 735 628 675 q 396 794 507 794 q 228 733 292 794 q 164 553 164 671 m 269 438 l 269 682 l 244 682 l 244 718 l 372 718 q 388 719 381 718 q 397 719 394 719 q 503 698 464 719 q 542 632 542 676 q 528 585 542 604 q 493 556 514 567 l 576 431 l 568 401 l 458 401 l 390 533 l 376 533 l 376 438 l 413 438 l 413 401 l 244 401 l 244 438 l 269 438 m 421 631 q 419 651 421 642 q 417 667 418 660 q 414 679 415 674 q 408 681 411 679 q 403 681 406 681 q 397 682 400 682 q 390 681 393 682 q 383 681 386 681 l 376 681 l 376 576 l 417 576 q 418 593 417 585 q 420 610 419 600 q 421 631 421 619 z "},"¯":{"ha":722,"x_min":124,"x_max":599,"o":"m 599 867 l 599 786 l 124 786 l 124 867 l 599 867 z "},"°":{"ha":525,"x_min":69,"x_max":456,"o":"m 69 622 q 123 760 69 707 q 263 814 176 814 q 404 763 353 814 q 456 622 456 713 q 402 484 456 538 q 263 431 349 431 q 121 482 172 431 q 69 622 69 533 m 164 624 q 190 539 164 567 q 263 511 215 511 q 334 541 307 511 q 361 624 361 571 q 263 733 361 733 q 191 705 218 733 q 164 624 164 676 z "},"±":{"ha":656,"x_min":69,"x_max":586,"o":"m 285 331 l 69 331 l 69 411 l 285 411 l 285 624 l 371 624 l 371 411 l 586 411 l 586 331 l 371 331 l 371 128 l 285 128 l 285 331 m 586 81 l 586 0 l 69 0 l 69 81 l 586 81 z "},"²":{"ha":467,"x_min":69,"x_max":397,"o":"m 249 875 q 355 850 321 875 q 389 788 389 825 q 374 731 389 751 q 335 699 358 711 q 283 677 311 686 q 226 657 254 668 q 199 642 214 651 q 178 619 185 633 l 335 619 l 335 664 l 390 664 q 393 628 392 644 q 396 596 394 613 q 397 565 397 579 q 374 510 397 525 q 306 496 350 496 l 69 496 q 85 592 72 549 q 138 663 99 635 q 178 686 163 681 q 201 697 193 692 q 213 713 210 701 q 215 754 215 725 q 214 774 215 763 q 211 794 213 785 q 208 818 210 806 q 161 813 185 818 q 138 788 138 807 l 138 765 l 71 765 l 71 790 q 90 832 71 815 q 138 858 110 849 q 196 871 165 867 q 249 875 226 875 z "},"³":{"ha":471,"x_min":76,"x_max":401,"o":"m 222 708 q 228 754 228 722 q 226 774 228 763 q 224 794 225 785 q 221 818 222 806 q 174 813 197 818 q 150 788 150 807 l 150 765 l 83 765 l 83 790 q 99 832 83 815 q 140 858 115 849 q 194 871 165 867 q 247 875 222 875 q 355 848 315 875 q 394 775 394 821 q 380 713 394 736 q 340 678 365 690 q 385 640 368 664 q 401 578 401 615 q 360 508 401 536 q 240 479 319 479 q 183 483 213 479 q 131 497 154 488 q 92 522 107 506 q 76 564 76 539 l 76 589 l 143 589 l 143 567 q 167 542 143 547 q 214 536 190 536 q 217 560 215 549 q 219 580 218 569 q 221 600 221 590 q 219 621 221 611 q 217 638 218 631 l 214 651 l 150 651 l 150 708 l 222 708 z "},"´":{"ha":722,"x_min":193,"x_max":531,"o":"m 394 957 q 446 976 418 976 q 476 969 461 976 q 503 948 492 961 q 523 919 515 935 q 531 886 531 903 q 501 826 531 851 l 228 675 l 193 714 l 394 957 z "},"µ":{"ha":828,"x_min":35,"x_max":800,"o":"m 43 599 l 125 599 l 335 639 l 335 67 q 401 80 371 67 q 452 110 431 93 q 488 144 474 128 q 507 168 503 161 l 507 624 l 726 624 l 726 69 l 744 69 q 769 71 757 69 l 800 74 l 800 7 q 751 0 775 3 q 710 -4 732 -3 q 674 -6 688 -6 q 611 2 638 -6 q 566 22 585 10 q 535 51 547 35 q 517 82 522 67 q 503 65 514 78 q 472 37 493 51 q 416 9 450 22 q 335 -8 382 -4 l 335 -229 l 35 -229 l 35 -158 l 117 -158 l 117 529 l 43 529 l 43 599 z "},"¶":{"ha":713,"x_min":28,"x_max":678,"o":"m 468 774 l 360 774 l 360 -104 l 274 -104 l 274 347 q 88 422 147 363 q 28 599 28 481 q 114 799 28 740 q 379 857 200 857 q 434 856 410 857 q 490 854 458 854 l 678 854 l 678 774 l 554 774 l 554 -104 l 468 -104 l 468 774 z "},"·":{"ha":453,"x_min":111,"x_max":342,"o":"m 111 408 q 138 500 111 471 q 226 529 164 529 q 317 500 293 529 q 342 408 342 471 q 315 317 342 346 q 226 289 289 289 q 138 317 164 289 q 111 408 111 346 z "},"¸":{"ha":722,"x_min":290,"x_max":486,"o":"m 386 14 l 386 -47 l 396 -47 q 461 -70 436 -47 q 486 -131 486 -93 q 457 -203 486 -175 q 372 -231 428 -231 l 290 -231 l 290 -161 l 372 -161 q 398 -156 388 -161 q 408 -132 408 -150 q 397 -110 408 -117 q 369 -103 386 -103 l 300 -103 l 300 14 l 386 14 z "},"¹":{"ha":490,"x_min":83,"x_max":428,"o":"m 176 832 l 319 875 l 343 875 l 343 561 l 428 561 l 428 496 l 83 496 l 83 561 l 168 561 l 168 767 l 83 767 l 83 832 l 176 832 z "},"º":{"ha":626,"x_min":83,"x_max":543,"o":"m 265 676 q 267 620 265 646 q 271 575 268 594 q 278 535 274 553 q 288 532 282 533 q 313 529 299 529 q 327 530 321 529 q 339 532 333 531 q 349 535 344 533 q 354 575 351 553 q 358 620 357 594 q 360 676 360 646 q 358 733 360 707 q 354 779 357 760 q 349 819 351 801 q 339 822 344 821 q 313 825 325 825 q 288 822 299 825 q 278 819 282 821 q 271 779 274 801 q 267 733 268 760 q 265 676 265 707 m 83 676 q 95 769 83 731 q 134 831 107 807 q 205 865 161 854 q 313 875 249 875 q 421 865 376 875 q 492 831 465 854 q 531 769 519 807 q 543 676 543 731 q 531 585 543 622 q 492 524 519 547 q 421 490 465 500 q 313 479 376 479 q 205 490 249 479 q 134 524 161 500 q 95 585 107 547 q 83 676 83 622 z "},"»":{"ha":719,"x_min":69,"x_max":636,"o":"m 360 72 l 319 108 l 446 338 l 319 567 l 360 604 l 588 414 q 622 378 610 394 q 636 344 635 363 l 636 338 q 626 299 636 314 q 603 272 617 283 l 360 72 m 110 72 l 69 108 l 196 338 l 69 567 l 110 604 l 338 414 q 372 378 360 394 q 386 344 385 363 l 386 338 q 376 299 386 314 q 353 272 367 283 l 110 72 z "},"¼":{"ha":1078,"x_min":111,"x_max":981,"o":"m 386 0 l 294 0 l 683 801 l 775 801 l 386 0 m 204 771 l 347 814 l 371 814 l 371 500 l 456 500 l 456 435 l 111 435 l 111 500 l 196 500 l 196 706 l 111 706 l 111 771 l 204 771 m 563 135 l 721 363 l 896 379 l 896 174 l 981 174 l 981 111 l 896 111 l 896 65 l 981 65 l 981 0 l 636 0 l 636 65 l 721 65 l 721 111 l 563 111 l 563 135 m 722 174 l 739 290 l 667 174 l 722 174 z "},"½":{"ha":1057,"x_min":111,"x_max":953,"o":"m 386 0 l 294 0 l 683 801 l 775 801 l 386 0 m 204 771 l 347 814 l 371 814 l 371 500 l 456 500 l 456 435 l 111 435 l 111 500 l 196 500 l 196 706 l 111 706 l 111 771 l 204 771 m 804 379 q 910 354 876 379 q 944 292 944 329 q 929 235 944 256 q 890 203 914 215 q 838 181 867 190 q 782 161 810 172 q 755 147 769 156 q 733 124 740 138 l 890 124 l 890 168 l 946 168 q 949 132 947 149 q 951 100 950 117 q 953 69 953 83 q 929 15 953 29 q 861 0 906 0 l 625 0 q 641 96 628 53 q 693 167 654 139 q 733 190 718 185 q 757 201 749 196 q 768 217 765 206 q 771 258 771 229 q 769 278 771 267 q 767 299 768 289 q 764 322 765 310 q 717 317 740 322 q 693 292 693 311 l 693 269 l 626 269 l 626 294 q 646 336 626 319 q 693 362 665 353 q 751 375 721 371 q 804 379 782 379 z "},"¾":{"ha":1083,"x_min":83,"x_max":986,"o":"m 568 135 l 726 363 l 901 379 l 901 174 l 986 174 l 986 111 l 901 111 l 901 65 l 986 65 l 986 0 l 642 0 l 642 65 l 726 65 l 726 111 l 568 111 l 568 135 m 229 647 q 235 693 235 661 q 233 713 235 701 q 231 733 232 724 q 228 757 229 744 q 181 751 204 757 q 157 726 157 746 l 157 704 l 90 704 l 90 729 q 106 771 90 754 q 147 797 122 788 q 201 810 172 806 q 254 814 229 814 q 362 787 322 814 q 401 714 401 760 q 387 652 401 675 q 347 617 372 629 q 392 578 375 603 q 408 517 408 554 q 367 447 408 475 q 247 418 326 418 q 190 422 219 418 q 138 435 161 426 q 99 461 114 444 q 83 503 83 478 l 83 528 l 150 528 l 150 506 q 174 481 150 486 q 221 475 197 475 q 224 499 222 488 q 226 519 225 508 q 228 539 228 529 q 226 560 228 550 q 224 576 225 569 l 221 590 l 157 590 l 157 647 l 229 647 m 365 0 l 274 0 l 663 801 l 754 801 l 365 0 m 728 174 l 744 290 l 672 174 l 728 174 z "},"¿":{"ha":547,"x_min":28,"x_max":519,"o":"m 401 515 q 375 424 401 453 q 286 394 349 394 q 195 424 219 394 q 171 515 171 453 q 197 606 171 578 q 286 635 224 635 q 375 606 349 635 q 401 515 401 578 m 326 326 l 326 193 q 299 151 311 176 q 279 97 288 129 q 271 19 271 64 q 273 -45 271 -17 q 278 -96 275 -74 q 285 -142 281 -121 q 394 -125 351 -142 q 436 -62 436 -108 l 436 -26 l 519 -26 l 519 -64 q 493 -145 519 -115 q 428 -191 467 -175 q 346 -211 390 -207 q 264 -215 301 -215 q 151 -198 197 -215 q 78 -150 106 -181 q 40 -78 51 -119 q 28 11 28 -36 q 42 100 28 58 q 84 173 56 142 q 154 222 113 204 q 253 240 196 240 l 253 326 l 326 326 z "},"À":{"ha":872,"x_min":14,"x_max":858,"o":"m 107 81 l 368 831 l 546 863 l 858 29 l 858 0 l 606 0 l 507 274 l 260 274 l 193 81 l 343 81 l 343 0 l 14 0 l 14 81 l 107 81 m 288 354 l 478 354 l 382 622 l 288 354 m 490 947 l 460 907 l 169 1026 q 135 1096 135 1054 q 143 1133 135 1117 q 164 1161 151 1150 q 191 1178 176 1172 q 217 1185 206 1185 q 264 1169 236 1185 l 490 947 z "},"Á":{"ha":872,"x_min":14,"x_max":858,"o":"m 107 81 l 368 831 l 546 863 l 858 29 l 858 0 l 606 0 l 507 274 l 260 274 l 193 81 l 343 81 l 343 0 l 14 0 l 14 81 l 107 81 m 288 354 l 478 354 l 382 622 l 288 354 m 656 1169 q 703 1185 683 1185 q 728 1178 714 1185 q 754 1161 742 1172 q 776 1133 767 1150 q 785 1096 785 1117 q 750 1026 785 1054 l 460 907 l 429 947 l 656 1169 z "},"Â":{"ha":872,"x_min":14,"x_max":858,"o":"m 107 81 l 368 831 l 546 863 l 858 29 l 858 0 l 606 0 l 507 274 l 260 274 l 193 81 l 343 81 l 343 0 l 14 0 l 14 81 l 107 81 m 413 1169 q 450 1183 433 1181 q 458 1185 454 1185 l 463 1185 q 467 1183 465 1183 l 474 1182 q 476 1182 475 1182 q 506 1169 489 1178 l 732 947 l 701 907 l 458 1007 l 217 907 l 186 947 l 413 1169 m 288 354 l 478 354 l 382 622 l 288 354 z "},"Ã":{"ha":872,"x_min":14,"x_max":858,"o":"m 107 81 l 368 831 l 546 863 l 858 29 l 858 0 l 606 0 l 507 274 l 260 274 l 193 81 l 343 81 l 343 0 l 14 0 l 14 81 l 107 81 m 288 354 l 478 354 l 382 622 l 288 354 m 232 1004 q 274 1083 246 1061 q 346 1106 303 1106 q 390 1098 368 1106 q 434 1081 413 1090 q 476 1065 456 1072 q 517 1057 497 1057 q 552 1072 540 1057 q 571 1107 564 1086 l 639 1078 q 597 999 625 1021 q 526 976 568 976 q 481 984 503 976 q 437 1001 458 992 q 394 1017 415 1010 q 354 1025 374 1025 q 319 1010 331 1025 q 300 975 307 996 l 232 1004 z "},"Ä":{"ha":872,"x_min":14,"x_max":858,"o":"m 107 81 l 368 831 l 546 863 l 858 29 l 858 0 l 606 0 l 507 274 l 260 274 l 193 81 l 343 81 l 343 0 l 14 0 l 14 81 l 107 81 m 288 354 l 478 354 l 382 622 l 288 354 m 194 1060 q 217 1138 194 1113 q 293 1164 240 1164 q 371 1138 350 1164 q 392 1060 392 1113 q 369 982 392 1007 q 293 957 346 957 q 217 982 240 957 q 194 1060 194 1007 m 479 1060 q 502 1138 479 1113 q 578 1164 525 1164 q 656 1138 635 1164 q 676 1060 676 1113 q 653 982 676 1007 q 578 957 631 957 q 502 982 525 957 q 479 1060 479 1007 z "},"Å":{"ha":872,"x_min":14,"x_max":858,"o":"m 107 81 l 358 803 q 339 818 347 810 q 299 931 299 860 q 341 1041 299 999 q 453 1083 383 1083 q 566 1043 525 1083 q 607 931 607 1003 q 564 819 607 863 l 563 818 l 858 29 l 858 0 l 606 0 l 507 274 l 260 274 l 193 81 l 343 81 l 343 0 l 14 0 l 14 81 l 107 81 m 288 354 l 478 354 l 382 622 l 288 354 m 382 932 q 401 871 382 892 q 453 850 419 850 q 504 872 485 850 q 524 932 524 893 q 453 1011 524 1011 q 401 990 421 1011 q 382 932 382 969 z "},"Æ":{"ha":1257,"x_min":0,"x_max":1188,"o":"m 558 81 l 558 315 l 319 315 l 197 81 l 329 81 l 329 0 l 0 0 l 0 81 l 100 81 l 464 774 l 339 774 l 339 854 l 1167 854 l 1167 571 q 1052 593 1097 571 q 978 647 1007 615 q 936 714 950 679 q 917 774 922 749 l 792 774 l 792 465 l 1035 465 l 1035 385 l 792 385 l 792 81 l 938 81 q 957 140 943 106 q 999 207 971 175 q 1072 262 1026 239 q 1188 285 1118 285 l 1188 0 l 435 0 l 435 81 l 558 81 m 558 396 l 558 771 l 363 396 l 558 396 z "},"Ç":{"ha":794,"x_min":63,"x_max":746,"o":"m 717 571 q 581 604 631 571 q 505 679 531 638 q 471 758 479 721 q 463 806 463 796 q 420 803 439 804 q 389 799 401 801 q 363 793 374 796 q 342 686 350 744 q 328 569 335 636 q 322 428 322 503 q 328 285 322 351 q 342 169 335 219 q 363 61 350 111 q 385 56 371 58 q 456 51 407 51 q 540 62 501 51 q 606 95 578 72 q 649 155 633 118 q 665 243 665 192 l 665 286 l 746 286 l 746 247 q 722 126 746 176 q 658 42 699 75 q 565 -6 618 10 q 499 -18 533 -15 l 499 -47 l 508 -47 q 574 -70 549 -47 q 599 -131 599 -93 q 569 -203 599 -175 q 485 -231 540 -231 l 403 -231 l 403 -161 l 485 -161 q 510 -156 500 -161 q 521 -132 521 -150 q 510 -110 521 -117 q 482 -103 499 -103 l 413 -103 l 413 -19 q 282 3 339 -15 q 159 82 208 28 q 86 222 110 136 q 63 428 63 307 q 87 633 63 549 q 162 772 111 718 q 291 851 213 826 q 478 875 369 875 q 568 872 525 875 q 644 864 611 868 q 717 854 683 858 l 717 571 z "},"È":{"ha":857,"x_min":35,"x_max":788,"o":"m 767 854 l 767 571 q 652 593 697 571 q 578 647 607 615 q 536 714 550 679 q 517 774 522 749 l 392 774 l 392 465 l 635 465 l 635 385 l 392 385 l 392 81 l 538 81 q 557 140 543 106 q 599 207 571 175 q 672 262 626 239 q 788 285 718 285 l 788 0 l 35 0 l 35 81 l 158 81 l 158 774 l 35 774 l 35 854 l 767 854 m 469 947 l 439 907 l 149 1026 q 114 1096 114 1054 q 122 1133 114 1117 q 143 1161 131 1150 q 170 1178 156 1172 q 196 1185 185 1185 q 243 1169 215 1185 l 469 947 z "},"É":{"ha":857,"x_min":35,"x_max":788,"o":"m 767 854 l 767 571 q 652 593 697 571 q 578 647 607 615 q 536 714 550 679 q 517 774 522 749 l 392 774 l 392 465 l 635 465 l 635 385 l 392 385 l 392 81 l 538 81 q 557 140 543 106 q 599 207 571 175 q 672 262 626 239 q 788 285 718 285 l 788 0 l 35 0 l 35 81 l 158 81 l 158 774 l 35 774 l 35 854 l 767 854 m 635 1169 q 682 1185 663 1185 q 707 1178 693 1185 q 733 1161 721 1172 q 755 1133 746 1150 q 764 1096 764 1117 q 729 1026 764 1054 l 439 907 l 408 947 l 635 1169 z "},"Ê":{"ha":857,"x_min":35,"x_max":788,"o":"m 767 854 l 767 571 q 652 593 697 571 q 578 647 607 615 q 536 714 550 679 q 517 774 522 749 l 392 774 l 392 465 l 635 465 l 635 385 l 392 385 l 392 81 l 538 81 q 557 140 543 106 q 599 207 571 175 q 672 262 626 239 q 788 285 718 285 l 788 0 l 35 0 l 35 81 l 158 81 l 158 774 l 35 774 l 35 854 l 767 854 m 392 1169 q 419 1182 407 1178 q 422 1182 421 1182 l 429 1183 q 433 1185 432 1185 l 438 1185 l 439 1185 q 446 1183 443 1185 q 485 1169 463 1181 l 711 947 l 681 907 l 438 1007 l 196 907 l 165 947 l 392 1169 z "},"Ë":{"ha":857,"x_min":35,"x_max":788,"o":"m 767 854 l 767 571 q 652 593 697 571 q 578 647 607 615 q 536 714 550 679 q 517 774 522 749 l 392 774 l 392 465 l 635 465 l 635 385 l 392 385 l 392 81 l 538 81 q 557 140 543 106 q 599 207 571 175 q 672 262 626 239 q 788 285 718 285 l 788 0 l 35 0 l 35 81 l 158 81 l 158 774 l 35 774 l 35 854 l 767 854 m 188 1060 q 210 1138 188 1113 q 286 1164 233 1164 q 364 1138 343 1164 q 385 1060 385 1113 q 362 982 385 1007 q 286 957 339 957 q 210 982 233 957 q 188 1060 188 1007 m 472 1060 q 495 1138 472 1113 q 571 1164 518 1164 q 649 1138 628 1164 q 669 1060 669 1113 q 647 982 669 1007 q 571 957 624 957 q 495 982 518 957 q 472 1060 472 1007 z "},"Ì":{"ha":550,"x_min":-49,"x_max":515,"o":"m 515 854 l 515 774 l 392 774 l 392 81 l 515 81 l 515 0 l 35 0 l 35 81 l 158 81 l 158 774 l 35 774 l 35 854 l 515 854 m 307 947 l 276 907 l -14 1026 q -49 1096 -49 1054 q -40 1133 -49 1117 q -19 1161 -32 1150 q 8 1178 -7 1172 q 33 1185 22 1185 q 81 1169 53 1185 l 307 947 z "},"Í":{"ha":550,"x_min":35,"x_max":601,"o":"m 515 854 l 515 774 l 392 774 l 392 81 l 515 81 l 515 0 l 35 0 l 35 81 l 158 81 l 158 774 l 35 774 l 35 854 l 515 854 m 472 1169 q 519 1185 500 1185 q 544 1178 531 1185 q 571 1161 558 1172 q 592 1133 583 1150 q 601 1096 601 1117 q 567 1026 601 1054 l 276 907 l 246 947 l 472 1169 z "},"Î":{"ha":550,"x_min":3,"x_max":549,"o":"m 515 854 l 515 774 l 392 774 l 392 81 l 515 81 l 515 0 l 35 0 l 35 81 l 158 81 l 158 774 l 35 774 l 35 854 l 515 854 m 229 1169 q 257 1182 244 1178 q 260 1182 258 1182 l 267 1183 q 271 1185 269 1185 l 276 1185 q 284 1184 281 1185 q 290 1182 288 1183 q 293 1182 292 1182 q 322 1169 306 1178 l 549 947 l 518 907 l 275 1007 l 33 907 l 3 947 l 229 1169 z "},"Ï":{"ha":550,"x_min":35,"x_max":517,"o":"m 515 854 l 515 774 l 392 774 l 392 81 l 515 81 l 515 0 l 35 0 l 35 81 l 158 81 l 158 774 l 35 774 l 35 854 l 515 854 m 35 1060 q 58 1138 35 1113 q 133 1164 81 1164 q 211 1138 190 1164 q 232 1060 232 1113 q 209 982 232 1007 q 133 957 186 957 q 58 982 81 957 q 35 1060 35 1007 m 319 1060 q 342 1138 319 1113 q 418 1164 365 1164 q 496 1138 475 1164 q 517 1060 517 1113 q 494 982 517 1007 q 418 957 471 957 q 342 982 365 957 q 319 1060 319 1007 z "},"Ð":{"ha":986,"x_min":35,"x_max":924,"o":"m 210 854 q 272 856 233 854 q 351 858 310 857 q 435 860 393 858 q 507 861 476 861 q 694 839 615 861 q 824 765 774 817 q 899 631 875 714 q 924 428 924 549 q 899 224 924 307 q 824 90 875 140 q 694 17 774 39 q 507 -6 615 -6 q 426 -5 468 -6 q 343 -3 383 -4 q 267 -1 303 -1 q 210 0 232 0 l 35 0 l 35 81 l 158 81 l 158 458 l 69 458 l 69 539 l 158 539 l 158 774 l 35 774 l 35 854 l 210 854 m 392 792 l 392 539 l 475 539 l 475 458 l 392 458 l 392 68 q 507 64 451 64 l 557 64 q 594 65 579 64 q 624 68 611 67 q 643 174 635 117 q 657 288 650 222 q 664 428 664 353 q 657 570 664 506 q 643 683 650 635 q 624 786 635 739 q 593 789 610 788 q 556 791 578 790 q 507 792 535 792 l 392 792 z "},"Ñ":{"ha":939,"x_min":35,"x_max":911,"o":"m 247 854 l 700 396 l 700 774 l 576 774 l 576 854 l 911 854 l 911 774 l 788 774 l 788 0 l 744 0 l 246 525 l 246 81 l 369 81 l 369 0 l 35 0 l 35 81 l 158 81 l 158 774 l 35 774 l 35 854 l 247 854 m 256 1004 q 298 1083 269 1061 q 369 1106 326 1106 q 414 1098 392 1106 q 458 1081 436 1090 q 500 1065 479 1072 q 540 1057 521 1057 q 576 1072 564 1057 q 594 1107 588 1086 l 663 1078 q 620 999 649 1021 q 550 976 592 976 q 504 984 526 976 q 460 1001 482 992 q 418 1017 439 1010 q 378 1025 397 1025 q 342 1010 354 1025 q 324 975 331 996 l 256 1004 z "},"Ò":{"ha":958,"x_min":63,"x_max":896,"o":"m 63 428 q 87 633 63 549 q 162 772 111 718 q 291 851 213 826 q 478 875 369 875 q 504 874 492 875 q 529 874 517 874 l 613 874 q 701 876 663 874 q 767 890 740 879 q 807 919 793 900 q 821 974 821 939 l 896 974 q 857 860 896 894 q 742 815 818 826 q 858 671 821 765 q 894 428 894 576 q 870 222 894 307 q 795 82 846 136 q 665 3 744 28 q 478 -21 586 -21 q 291 3 369 -21 q 162 82 213 28 q 87 222 111 136 q 63 428 63 307 m 322 428 q 328 282 322 349 q 342 167 335 215 q 363 61 350 110 q 393 54 376 57 q 429 50 408 51 q 478 49 450 49 q 528 50 506 49 q 565 54 550 51 q 594 61 582 57 q 614 171 606 113 q 628 287 621 221 q 635 428 635 353 q 628 572 635 506 q 614 688 621 639 q 594 793 606 744 q 564 799 581 796 q 527 803 549 801 q 478 806 506 806 q 429 803 450 806 q 393 799 408 801 q 363 793 376 796 q 342 683 350 742 q 328 567 335 633 q 322 428 322 501 m 508 947 l 478 907 l 188 1026 q 153 1096 153 1054 q 161 1133 153 1117 q 182 1161 169 1150 q 209 1178 194 1172 q 235 1185 224 1185 q 282 1169 254 1185 l 508 947 z "},"Ó":{"ha":958,"x_min":63,"x_max":896,"o":"m 63 428 q 87 633 63 549 q 162 772 111 718 q 291 851 213 826 q 478 875 369 875 q 504 874 492 875 q 529 874 517 874 l 613 874 q 701 876 663 874 q 767 890 740 879 q 807 919 793 900 q 821 974 821 939 l 896 974 q 857 860 896 894 q 742 815 818 826 q 858 671 821 765 q 894 428 894 576 q 870 222 894 307 q 795 82 846 136 q 665 3 744 28 q 478 -21 586 -21 q 291 3 369 -21 q 162 82 213 28 q 87 222 111 136 q 63 428 63 307 m 322 428 q 328 282 322 349 q 342 167 335 215 q 363 61 350 110 q 393 54 376 57 q 429 50 408 51 q 478 49 450 49 q 528 50 506 49 q 565 54 550 51 q 594 61 582 57 q 614 171 606 113 q 628 287 621 221 q 635 428 635 353 q 628 572 635 506 q 614 688 621 639 q 594 793 606 744 q 564 799 581 796 q 527 803 549 801 q 478 806 506 806 q 429 803 450 806 q 393 799 408 801 q 363 793 376 796 q 342 683 350 742 q 328 567 335 633 q 322 428 322 501 m 674 1169 q 721 1185 701 1185 q 746 1178 732 1185 q 772 1161 760 1172 q 794 1133 785 1150 q 803 1096 803 1117 q 768 1026 803 1054 l 478 907 l 447 947 l 674 1169 z "},"Ô":{"ha":958,"x_min":63,"x_max":894,"o":"m 63 428 q 87 633 63 549 q 162 772 111 718 q 291 851 213 826 q 478 875 369 875 q 504 874 492 875 q 529 874 517 874 q 592 874 563 874 q 642 880 621 875 q 676 894 664 885 q 688 921 688 904 l 481 1026 l 261 906 l 226 944 l 418 1175 q 447 1201 433 1194 q 479 1207 461 1207 q 540 1178 511 1207 l 739 982 q 774 907 774 947 q 758 859 774 879 q 719 828 743 839 q 852 684 810 781 q 894 428 894 588 q 870 222 894 307 q 795 82 846 136 q 665 3 744 28 q 478 -21 586 -21 q 291 3 369 -21 q 162 82 213 28 q 87 222 111 136 q 63 428 63 307 m 322 428 q 328 282 322 349 q 342 167 335 215 q 363 61 350 110 q 393 54 376 57 q 429 50 408 51 q 478 49 450 49 q 528 50 506 49 q 565 54 550 51 q 594 61 582 57 q 614 171 606 113 q 628 287 621 221 q 635 428 635 353 q 628 572 635 506 q 614 688 621 639 q 594 793 606 744 q 564 799 581 796 q 527 803 549 801 q 478 806 506 806 q 429 803 450 806 q 393 799 408 801 q 363 793 376 796 q 342 683 350 742 q 328 567 335 633 q 322 428 322 501 z "},"Õ":{"ha":958,"x_min":63,"x_max":896,"o":"m 63 428 q 87 633 63 549 q 162 772 111 718 q 291 851 213 826 q 478 875 369 875 q 504 874 492 875 q 529 874 517 874 l 613 874 q 701 876 663 874 q 767 890 740 879 q 807 919 793 900 q 821 974 821 939 l 896 974 q 857 860 896 894 q 742 815 818 826 q 858 671 821 765 q 894 428 894 576 q 870 222 894 307 q 795 82 846 136 q 665 3 744 28 q 478 -21 586 -21 q 291 3 369 -21 q 162 82 213 28 q 87 222 111 136 q 63 428 63 307 m 322 428 q 328 282 322 349 q 342 167 335 215 q 363 61 350 110 q 393 54 376 57 q 429 50 408 51 q 478 49 450 49 q 528 50 506 49 q 565 54 550 51 q 594 61 582 57 q 614 171 606 113 q 628 287 621 221 q 635 428 635 353 q 628 572 635 506 q 614 688 621 639 q 594 793 606 744 q 564 799 581 796 q 527 803 549 801 q 478 806 506 806 q 429 803 450 806 q 393 799 408 801 q 363 793 376 796 q 342 683 350 742 q 328 567 335 633 q 322 428 322 501 m 275 1004 q 317 1083 289 1061 q 389 1106 346 1106 q 433 1098 411 1106 q 477 1081 456 1090 q 519 1065 499 1072 q 560 1057 540 1057 q 595 1072 583 1057 q 614 1107 607 1086 l 682 1078 q 640 999 668 1021 q 569 976 611 976 q 524 984 546 976 q 480 1001 501 992 q 438 1017 458 1010 q 397 1025 417 1025 q 362 1010 374 1025 q 343 975 350 996 l 275 1004 z "},"Ö":{"ha":958,"x_min":63,"x_max":896,"o":"m 63 428 q 87 633 63 549 q 162 772 111 718 q 291 851 213 826 q 478 875 369 875 q 504 874 492 875 q 529 874 517 874 l 613 874 q 701 876 663 874 q 767 890 740 879 q 807 919 793 900 q 821 974 821 939 l 896 974 q 857 860 896 894 q 742 815 818 826 q 858 671 821 765 q 894 428 894 576 q 870 222 894 307 q 795 82 846 136 q 665 3 744 28 q 478 -21 586 -21 q 291 3 369 -21 q 162 82 213 28 q 87 222 111 136 q 63 428 63 307 m 322 428 q 328 282 322 349 q 342 167 335 215 q 363 61 350 110 q 393 54 376 57 q 429 50 408 51 q 478 49 450 49 q 528 50 506 49 q 565 54 550 51 q 594 61 582 57 q 614 171 606 113 q 628 287 621 221 q 635 428 635 353 q 628 572 635 506 q 614 688 621 639 q 594 793 606 744 q 564 799 581 796 q 527 803 549 801 q 478 806 506 806 q 429 803 450 806 q 393 799 408 801 q 363 793 376 796 q 342 683 350 742 q 328 567 335 633 q 322 428 322 501 m 238 1060 q 260 1138 238 1113 q 336 1164 283 1164 q 414 1138 393 1164 q 435 1060 435 1113 q 412 982 435 1007 q 336 957 389 957 q 260 982 283 957 q 238 1060 238 1007 m 522 1060 q 545 1138 522 1113 q 621 1164 568 1164 q 699 1138 678 1164 q 719 1060 719 1113 q 697 982 719 1007 q 621 957 674 957 q 545 982 568 957 q 522 1060 522 1007 z "},"×":{"ha":697,"x_min":83,"x_max":614,"o":"m 347 313 l 140 104 l 83 161 l 290 368 l 93 567 l 153 626 l 350 428 l 547 626 l 604 569 l 407 372 l 614 165 l 554 106 l 347 313 z "},"Ø":{"ha":957,"x_min":63,"x_max":894,"o":"m 706 835 q 849 692 804 790 q 894 428 894 593 q 870 222 894 307 q 795 82 846 136 q 665 3 744 28 q 478 -21 586 -21 q 331 -7 392 -21 l 313 -49 l 218 -49 l 249 19 q 108 163 153 64 q 63 428 63 263 q 87 633 63 549 q 162 772 111 718 q 291 851 213 826 q 478 875 369 875 q 555 872 518 875 q 624 861 592 868 l 643 904 l 738 904 l 706 835 m 594 61 q 614 171 606 113 q 628 287 621 221 q 635 428 635 353 l 635 674 l 361 61 q 415 53 385 57 q 478 49 446 49 q 528 50 506 49 q 565 54 550 51 q 594 61 582 57 m 322 185 l 593 793 q 540 801 569 797 q 478 806 510 806 q 429 803 450 806 q 393 799 408 801 q 363 793 376 796 q 342 683 350 742 q 328 567 335 633 q 322 428 322 501 l 322 185 z "},"Ù":{"ha":925,"x_min":28,"x_max":918,"o":"m 151 774 l 28 774 l 28 854 l 385 854 l 385 194 q 388 147 385 171 q 394 103 390 122 q 404 58 399 79 q 424 54 408 56 q 457 52 435 53 q 515 51 479 51 q 645 81 597 51 q 693 181 693 110 l 693 774 l 549 774 l 549 854 l 918 854 l 918 774 l 781 774 l 781 181 q 756 81 781 119 q 689 19 731 42 q 592 -12 647 -3 q 478 -21 538 -21 q 344 -12 404 -21 q 240 19 283 -4 q 174 81 197 42 q 151 181 151 119 l 151 774 m 543 947 l 513 907 l 222 1026 q 188 1096 188 1054 q 196 1133 188 1117 q 217 1161 204 1150 q 244 1178 229 1172 q 269 1185 258 1185 q 317 1169 289 1185 l 543 947 z "},"Ú":{"ha":925,"x_min":28,"x_max":918,"o":"m 151 774 l 28 774 l 28 854 l 385 854 l 385 194 q 388 147 385 171 q 394 103 390 122 q 404 58 399 79 q 424 54 408 56 q 457 52 435 53 q 515 51 479 51 q 645 81 597 51 q 693 181 693 110 l 693 774 l 549 774 l 549 854 l 918 854 l 918 774 l 781 774 l 781 181 q 756 81 781 119 q 689 19 731 42 q 592 -12 647 -3 q 478 -21 538 -21 q 344 -12 404 -21 q 240 19 283 -4 q 174 81 197 42 q 151 181 151 119 l 151 774 m 708 1169 q 756 1185 736 1185 q 781 1178 767 1185 q 807 1161 794 1172 q 828 1133 819 1150 q 838 1096 838 1117 q 803 1026 838 1054 l 513 907 l 482 947 l 708 1169 z "},"Û":{"ha":925,"x_min":28,"x_max":918,"o":"m 151 774 l 28 774 l 28 854 l 385 854 l 385 194 q 388 147 385 171 q 394 103 390 122 q 404 58 399 79 q 424 54 408 56 q 457 52 435 53 q 515 51 479 51 q 645 81 597 51 q 693 181 693 110 l 693 774 l 549 774 l 549 854 l 918 854 l 918 774 l 781 774 l 781 181 q 756 81 781 119 q 689 19 731 42 q 592 -12 647 -3 q 478 -21 538 -21 q 344 -12 404 -21 q 240 19 283 -4 q 174 81 197 42 q 151 181 151 119 l 151 774 m 465 1169 q 503 1183 486 1181 q 507 1185 506 1185 l 513 1185 q 519 1183 515 1185 q 558 1169 536 1181 l 785 947 l 754 907 l 511 1007 l 269 907 l 239 947 l 465 1169 z "},"Ü":{"ha":925,"x_min":28,"x_max":918,"o":"m 151 774 l 28 774 l 28 854 l 385 854 l 385 194 q 388 147 385 171 q 394 103 390 122 q 404 58 399 79 q 424 54 408 56 q 457 52 435 53 q 515 51 479 51 q 645 81 597 51 q 693 181 693 110 l 693 774 l 549 774 l 549 854 l 918 854 l 918 774 l 781 774 l 781 181 q 756 81 781 119 q 689 19 731 42 q 592 -12 647 -3 q 478 -21 538 -21 q 344 -12 404 -21 q 240 19 283 -4 q 174 81 197 42 q 151 181 151 119 l 151 774 m 221 1060 q 244 1138 221 1113 q 319 1164 267 1164 q 397 1138 376 1164 q 418 1060 418 1113 q 395 982 418 1007 q 319 957 372 957 q 244 982 267 957 q 221 1060 221 1007 m 506 1060 q 528 1138 506 1113 q 604 1164 551 1164 q 682 1138 661 1164 q 703 1060 703 1113 q 680 982 703 1007 q 604 957 657 957 q 528 982 551 957 q 506 1060 506 1007 z "},"Ý":{"ha":831,"x_min":21,"x_max":817,"o":"m 21 854 l 274 854 l 490 461 l 629 774 l 488 774 l 488 854 l 817 854 l 817 774 l 714 774 l 526 357 l 526 81 l 650 81 l 650 0 l 169 0 l 169 81 l 293 81 l 293 351 l 21 825 l 21 854 m 624 1169 q 671 1185 651 1185 q 696 1178 682 1185 q 722 1161 710 1172 q 744 1133 735 1150 q 753 1096 753 1117 q 718 1026 753 1054 l 428 907 l 397 947 l 624 1169 z "},"Þ":{"ha":886,"x_min":35,"x_max":824,"o":"m 158 81 l 158 774 l 35 774 l 35 854 l 515 854 l 515 774 l 392 774 l 392 708 q 431 710 407 710 q 472 711 454 711 q 738 653 651 711 q 824 453 824 594 q 738 254 824 313 q 472 196 653 196 l 435 196 q 392 197 413 196 l 392 81 l 515 81 l 515 0 l 35 0 l 35 81 l 158 81 m 472 631 q 428 629 449 631 q 392 625 408 628 l 392 281 q 472 276 425 276 q 524 281 504 276 q 543 285 535 282 q 554 326 549 301 q 562 378 558 347 q 565 451 565 410 q 562 526 565 494 q 554 579 558 557 q 543 622 549 604 q 524 626 535 624 q 501 629 514 628 q 472 631 488 631 z "},"ß":{"ha":800,"x_min":28,"x_max":765,"o":"m 371 904 q 485 890 438 904 q 563 850 533 875 q 607 792 593 825 q 621 725 621 760 q 602 644 621 675 q 557 590 583 614 l 610 579 q 726 503 688 563 q 765 333 765 443 l 765 199 q 713 38 765 88 q 543 -12 661 -12 q 415 17 460 -12 q 369 121 369 46 l 369 186 l 442 186 l 442 126 q 458 74 442 94 q 500 53 474 53 l 528 53 q 539 54 533 53 l 539 79 q 540 101 539 90 q 540 121 540 113 l 540 372 q 531 445 540 417 q 510 489 521 474 q 479 517 496 507 l 369 517 l 369 588 l 400 588 q 462 599 435 588 q 508 628 489 610 q 538 669 528 646 q 549 715 549 692 q 540 761 549 739 q 515 801 532 783 q 469 828 497 818 q 401 839 440 839 q 375 838 386 839 q 356 838 364 838 q 339 836 346 836 q 333 800 336 819 q 329 761 331 783 q 328 714 328 739 l 328 0 l 28 0 l 28 71 l 110 71 l 110 678 q 176 846 110 788 q 371 904 243 904 z "},"à":{"ha":724,"x_min":44,"x_max":703,"o":"m 629 69 l 647 69 q 672 71 660 69 l 703 74 l 703 7 q 654 0 678 3 q 613 -4 635 -3 q 576 -6 590 -6 q 474 19 508 -6 q 424 74 439 44 q 353 12 393 35 q 263 -11 314 -11 q 122 24 168 -11 q 76 147 76 60 q 77 206 76 178 q 81 254 78 233 q 86 299 83 279 l 408 378 q 406 452 407 418 q 403 510 404 486 q 399 560 400 538 q 386 563 394 561 q 365 565 379 564 q 332 567 351 567 q 308 566 319 567 q 286 564 297 565 q 272 517 282 544 q 242 466 263 490 q 187 424 221 442 q 100 407 153 407 l 100 617 q 190 625 144 621 q 276 631 231 628 q 365 633 322 633 q 508 618 456 633 q 587 565 560 603 q 622 465 614 528 q 629 310 629 403 l 629 69 m 382 714 l 347 675 l 74 826 q 44 886 44 851 q 52 919 44 903 q 72 948 60 935 q 99 969 83 961 q 129 976 114 976 q 181 957 157 976 l 382 714 m 307 64 q 360 99 335 71 q 410 168 386 128 l 410 315 l 304 286 q 300 241 301 264 q 299 196 299 218 q 299 144 299 168 q 303 103 300 121 q 307 64 304 82 z "},"á":{"ha":724,"x_min":76,"x_max":703,"o":"m 629 69 l 647 69 q 672 71 660 69 l 703 74 l 703 7 q 654 0 678 3 q 613 -4 635 -3 q 576 -6 590 -6 q 474 19 508 -6 q 424 74 439 44 q 353 12 393 35 q 263 -11 314 -11 q 122 24 168 -11 q 76 147 76 60 q 77 206 76 178 q 81 254 78 233 q 86 299 83 279 l 408 378 q 406 452 407 418 q 403 510 404 486 q 399 560 400 538 q 386 563 394 561 q 365 565 379 564 q 332 567 351 567 q 308 566 319 567 q 286 564 297 565 q 272 517 282 544 q 242 466 263 490 q 187 424 221 442 q 100 407 153 407 l 100 617 q 190 625 144 621 q 276 631 231 628 q 365 633 322 633 q 508 618 456 633 q 587 565 560 603 q 622 465 614 528 q 629 310 629 403 l 629 69 m 514 957 q 565 976 538 976 q 596 969 581 976 q 623 948 611 961 q 642 919 635 935 q 650 886 650 903 q 621 826 650 851 l 347 675 l 313 714 l 514 957 m 307 64 q 360 99 335 71 q 410 168 386 128 l 410 315 l 304 286 q 300 241 301 264 q 299 196 299 218 q 299 144 299 168 q 303 103 300 121 q 307 64 304 82 z "},"â":{"ha":724,"x_min":76,"x_max":703,"o":"m 629 69 l 647 69 q 672 71 660 69 l 703 74 l 703 7 q 654 0 678 3 q 613 -4 635 -3 q 576 -6 590 -6 q 474 19 508 -6 q 424 74 439 44 q 353 12 393 35 q 263 -11 314 -11 q 122 24 168 -11 q 76 147 76 60 q 77 206 76 178 q 81 254 78 233 q 86 299 83 279 l 408 378 q 406 452 407 418 q 403 510 404 486 q 399 560 400 538 q 386 563 394 561 q 365 565 379 564 q 332 567 351 567 q 308 566 319 567 q 286 564 297 565 q 272 517 282 544 q 242 466 263 490 q 187 424 221 442 q 100 407 153 407 l 100 617 q 190 625 144 621 q 276 631 231 628 q 365 633 322 633 q 508 618 456 633 q 587 565 560 603 q 622 465 614 528 q 629 310 629 403 l 629 69 m 285 944 q 309 966 294 956 q 342 976 324 976 l 353 976 q 410 944 385 976 l 600 714 l 565 675 l 347 796 l 129 675 l 94 714 l 285 944 m 307 64 q 360 99 335 71 q 410 168 386 128 l 410 315 l 304 286 q 300 241 301 264 q 299 196 299 218 q 299 144 299 168 q 303 103 300 121 q 307 64 304 82 z "},"ã":{"ha":724,"x_min":76,"x_max":703,"o":"m 629 69 l 647 69 q 672 71 660 69 l 703 74 l 703 7 q 654 0 678 3 q 613 -4 635 -3 q 576 -6 590 -6 q 474 19 508 -6 q 424 74 439 44 q 353 12 393 35 q 263 -11 314 -11 q 122 24 168 -11 q 76 147 76 60 q 77 206 76 178 q 81 254 78 233 q 86 299 83 279 l 408 378 q 406 452 407 418 q 403 510 404 486 q 399 560 400 538 q 386 563 394 561 q 365 565 379 564 q 332 567 351 567 q 308 566 319 567 q 286 564 297 565 q 272 517 282 544 q 242 466 263 490 q 187 424 221 442 q 100 407 153 407 l 100 617 q 190 625 144 621 q 276 631 231 628 q 365 633 322 633 q 508 618 456 633 q 587 565 560 603 q 622 465 614 528 q 629 310 629 403 l 629 69 m 142 774 q 184 853 156 831 q 256 875 213 875 q 300 867 278 875 q 344 851 322 860 q 386 834 365 842 q 426 826 407 826 q 462 841 450 826 q 481 876 474 856 l 549 847 q 506 768 535 790 q 436 746 478 746 q 390 753 413 746 q 347 770 368 761 q 304 787 325 779 q 264 794 283 794 q 228 780 240 794 q 210 744 217 765 l 142 774 m 307 64 q 360 99 335 71 q 410 168 386 128 l 410 315 l 304 286 q 300 241 301 264 q 299 196 299 218 q 299 144 299 168 q 303 103 300 121 q 307 64 304 82 z "},"ä":{"ha":724,"x_min":76,"x_max":703,"o":"m 629 69 l 647 69 q 672 71 660 69 l 703 74 l 703 7 q 654 0 678 3 q 613 -4 635 -3 q 576 -6 590 -6 q 474 19 508 -6 q 424 74 439 44 q 353 12 393 35 q 263 -11 314 -11 q 122 24 168 -11 q 76 147 76 60 q 77 206 76 178 q 81 254 78 233 q 86 299 83 279 l 408 378 q 406 452 407 418 q 403 510 404 486 q 399 560 400 538 q 386 563 394 561 q 365 565 379 564 q 332 567 351 567 q 308 566 319 567 q 286 564 297 565 q 272 517 282 544 q 242 466 263 490 q 187 424 221 442 q 100 407 153 407 l 100 617 q 190 625 144 621 q 276 631 231 628 q 365 633 322 633 q 508 618 456 633 q 587 565 560 603 q 622 465 614 528 q 629 310 629 403 l 629 69 m 389 829 q 412 908 389 882 q 488 933 435 933 q 565 908 544 933 q 586 829 586 882 q 563 751 586 776 q 488 726 540 726 q 412 751 435 726 q 389 829 389 776 m 104 829 q 127 908 104 882 q 203 933 150 933 q 281 908 260 933 q 301 829 301 882 q 278 751 301 776 q 203 726 256 726 q 127 751 150 726 q 104 829 104 776 m 307 64 q 360 99 335 71 q 410 168 386 128 l 410 315 l 304 286 q 300 241 301 264 q 299 196 299 218 q 299 144 299 168 q 303 103 300 121 q 307 64 304 82 z "},"å":{"ha":724,"x_min":76,"x_max":703,"o":"m 629 69 l 647 69 q 672 71 660 69 l 703 74 l 703 7 q 654 0 678 3 q 613 -4 635 -3 q 576 -6 590 -6 q 474 19 508 -6 q 424 74 439 44 q 353 12 393 35 q 263 -11 314 -11 q 122 24 168 -11 q 76 147 76 60 q 77 206 76 178 q 81 254 78 233 q 86 299 83 279 l 408 378 q 406 452 407 418 q 403 510 404 486 q 399 560 400 538 q 386 563 394 561 q 365 565 379 564 q 332 567 351 567 q 308 566 319 567 q 286 564 297 565 q 272 517 282 544 q 242 466 263 490 q 187 424 221 442 q 100 407 153 407 l 100 617 q 190 625 144 621 q 276 631 231 628 q 365 633 322 633 q 508 618 456 633 q 587 565 560 603 q 622 465 614 528 q 629 310 629 403 l 629 69 m 200 833 q 242 944 200 901 q 354 986 285 986 q 467 946 426 986 q 508 833 508 906 q 466 723 508 765 q 354 681 424 681 q 241 722 282 681 q 200 833 200 763 m 307 64 q 360 99 335 71 q 410 168 386 128 l 410 315 l 304 286 q 300 241 301 264 q 299 196 299 218 q 299 144 299 168 q 303 103 300 121 q 307 64 304 82 m 283 835 q 302 774 283 794 q 354 753 321 753 q 406 774 386 753 q 425 835 425 796 q 354 914 425 914 q 303 893 322 914 q 283 835 283 872 z "},"æ":{"ha":1036,"x_min":76,"x_max":988,"o":"m 100 617 q 190 625 144 621 q 276 631 231 628 q 365 633 322 633 q 542 590 482 633 q 725 633 615 633 q 851 619 801 633 q 932 572 901 604 q 975 488 963 540 q 988 360 988 436 q 986 319 988 336 q 983 290 985 301 q 981 269 982 276 l 638 269 q 643 184 639 222 q 651 118 647 146 q 663 60 657 85 q 675 56 667 57 q 695 53 682 54 q 729 53 708 53 q 795 58 764 53 q 850 74 826 63 q 887 105 874 85 q 900 154 900 125 l 975 154 q 949 63 975 96 q 885 12 924 29 q 803 -10 847 -6 q 719 -14 758 -14 q 545 14 611 -14 q 446 106 479 42 q 369 22 414 54 q 263 -11 325 -11 q 122 24 168 -11 q 76 147 76 60 q 77 206 76 178 q 81 254 78 233 q 86 299 83 279 l 408 378 q 406 452 407 418 q 403 510 404 486 q 399 560 400 538 q 386 563 394 561 q 365 565 379 564 q 332 567 351 567 q 308 566 319 567 q 286 564 297 565 q 272 517 282 544 q 242 466 263 490 q 187 424 221 442 q 100 407 153 407 l 100 617 m 663 563 q 650 496 656 532 q 642 422 646 464 q 638 329 638 379 l 772 329 q 765 431 769 388 q 756 504 761 475 q 743 563 750 539 q 733 567 739 564 q 720 569 728 568 q 703 571 713 571 q 686 569 693 571 q 674 567 679 568 q 663 563 668 564 m 307 64 q 367 107 338 72 q 419 188 396 142 q 410 310 410 236 l 410 315 l 304 286 q 300 241 301 264 q 299 196 299 218 q 299 144 299 168 q 303 103 300 121 q 307 64 304 82 z "},"ç":{"ha":618,"x_min":49,"x_max":583,"o":"m 564 410 q 470 430 506 410 q 414 476 435 450 q 385 530 393 503 q 375 571 376 557 l 342 571 q 325 569 332 571 q 313 567 318 568 q 301 563 307 564 q 289 490 294 529 q 280 410 283 457 q 276 310 276 364 q 280 210 276 256 q 289 131 283 164 q 301 60 294 92 q 317 56 307 57 q 336 53 324 54 q 367 53 349 53 q 425 58 397 53 q 473 78 453 64 q 505 118 493 93 q 517 182 517 143 l 583 182 q 561 76 583 115 q 505 17 539 38 q 431 -8 471 -3 q 390 -12 410 -11 l 390 -47 l 400 -47 q 465 -70 440 -47 q 490 -131 490 -93 q 461 -203 490 -175 q 376 -231 432 -231 l 294 -231 l 294 -161 l 376 -161 q 402 -156 392 -161 q 413 -132 413 -150 q 401 -110 413 -117 q 374 -103 390 -103 l 304 -103 l 304 -11 q 214 3 253 -8 q 119 59 156 21 q 65 159 82 97 q 49 310 49 221 q 63 460 49 399 q 114 560 78 522 q 210 616 150 599 q 364 633 271 633 q 433 632 397 633 q 497 628 468 631 q 564 624 532 625 l 564 410 z "},"è":{"ha":675,"x_min":39,"x_max":626,"o":"m 364 633 q 490 619 440 633 q 571 572 540 604 q 614 488 601 540 q 626 360 626 436 q 625 319 626 336 q 622 290 624 301 q 619 269 621 276 l 276 269 q 282 184 278 222 q 290 118 286 146 q 301 60 296 85 q 314 56 306 57 q 334 53 321 54 q 368 53 347 53 q 434 58 403 53 q 489 74 465 63 q 526 105 513 85 q 539 154 539 125 l 614 154 q 588 63 614 96 q 524 12 563 29 q 442 -10 486 -6 q 358 -14 397 -14 q 215 3 274 -14 q 119 59 156 21 q 65 159 82 97 q 49 310 49 221 q 63 460 49 399 q 114 560 78 522 q 210 616 150 599 q 364 633 271 633 m 301 563 q 289 496 294 532 q 281 422 285 464 q 276 329 276 379 l 411 329 q 404 431 408 388 q 394 504 400 475 q 382 563 389 539 q 372 567 378 564 q 359 569 367 568 q 342 571 351 571 q 325 569 332 571 q 313 567 318 568 q 301 563 307 564 m 376 714 l 342 675 l 68 826 q 39 886 39 851 q 47 919 39 903 q 66 948 54 935 q 93 969 78 961 q 124 976 108 976 q 175 957 151 976 l 376 714 z "},"é":{"ha":675,"x_min":49,"x_max":644,"o":"m 364 633 q 490 619 440 633 q 571 572 540 604 q 614 488 601 540 q 626 360 626 436 q 625 319 626 336 q 622 290 624 301 q 619 269 621 276 l 276 269 q 282 184 278 222 q 290 118 286 146 q 301 60 296 85 q 314 56 306 57 q 334 53 321 54 q 368 53 347 53 q 434 58 403 53 q 489 74 465 63 q 526 105 513 85 q 539 154 539 125 l 614 154 q 588 63 614 96 q 524 12 563 29 q 442 -10 486 -6 q 358 -14 397 -14 q 215 3 274 -14 q 119 59 156 21 q 65 159 82 97 q 49 310 49 221 q 63 460 49 399 q 114 560 78 522 q 210 616 150 599 q 364 633 271 633 m 301 563 q 289 496 294 532 q 281 422 285 464 q 276 329 276 379 l 411 329 q 404 431 408 388 q 394 504 400 475 q 382 563 389 539 q 372 567 378 564 q 359 569 367 568 q 342 571 351 571 q 325 569 332 571 q 313 567 318 568 q 301 563 307 564 m 508 957 q 560 976 532 976 q 590 969 575 976 q 617 948 606 961 q 637 919 629 935 q 644 886 644 903 q 615 826 644 851 l 342 675 l 307 714 l 508 957 z "},"ê":{"ha":675,"x_min":49,"x_max":626,"o":"m 364 633 q 490 619 440 633 q 571 572 540 604 q 614 488 601 540 q 626 360 626 436 q 625 319 626 336 q 622 290 624 301 q 619 269 621 276 l 276 269 q 282 184 278 222 q 290 118 286 146 q 301 60 296 85 q 314 56 306 57 q 334 53 321 54 q 368 53 347 53 q 434 58 403 53 q 489 74 465 63 q 526 105 513 85 q 539 154 539 125 l 614 154 q 588 63 614 96 q 524 12 563 29 q 442 -10 486 -6 q 358 -14 397 -14 q 215 3 274 -14 q 119 59 156 21 q 65 159 82 97 q 49 310 49 221 q 63 460 49 399 q 114 560 78 522 q 210 616 150 599 q 364 633 271 633 m 301 563 q 289 496 294 532 q 281 422 285 464 q 276 329 276 379 l 411 329 q 404 431 408 388 q 394 504 400 475 q 382 563 389 539 q 372 567 378 564 q 359 569 367 568 q 342 571 351 571 q 325 569 332 571 q 313 567 318 568 q 301 563 307 564 m 279 944 q 303 966 289 956 q 336 976 318 976 l 347 976 q 404 944 379 976 l 594 714 l 560 675 l 342 796 l 124 675 l 89 714 l 279 944 z "},"ë":{"ha":675,"x_min":49,"x_max":626,"o":"m 364 633 q 490 619 440 633 q 571 572 540 604 q 614 488 601 540 q 626 360 626 436 q 625 319 626 336 q 622 290 624 301 q 619 269 621 276 l 276 269 q 282 184 278 222 q 290 118 286 146 q 301 60 296 85 q 314 56 306 57 q 334 53 321 54 q 368 53 347 53 q 434 58 403 53 q 489 74 465 63 q 526 105 513 85 q 539 154 539 125 l 614 154 q 588 63 614 96 q 524 12 563 29 q 442 -10 486 -6 q 358 -14 397 -14 q 215 3 274 -14 q 119 59 156 21 q 65 159 82 97 q 49 310 49 221 q 63 460 49 399 q 114 560 78 522 q 210 616 150 599 q 364 633 271 633 m 301 563 q 289 496 294 532 q 281 422 285 464 q 276 329 276 379 l 411 329 q 404 431 408 388 q 394 504 400 475 q 382 563 389 539 q 372 567 378 564 q 359 569 367 568 q 342 571 351 571 q 325 569 332 571 q 313 567 318 568 q 301 563 307 564 m 99 829 q 122 908 99 882 q 197 933 144 933 q 275 908 254 933 q 296 829 296 882 q 273 751 296 776 q 197 726 250 726 q 122 751 144 726 q 99 829 99 776 m 383 829 q 406 908 383 882 q 482 933 429 933 q 560 908 539 933 q 581 829 581 882 q 558 751 581 776 q 482 726 535 726 q 406 751 429 726 q 383 829 383 776 z "},"ì":{"ha":453,"x_min":-21,"x_max":425,"o":"m 42 613 l 124 613 l 343 646 l 343 71 l 425 71 l 425 0 l 42 0 l 42 71 l 124 71 l 124 543 l 42 543 l 42 613 m 271 710 l 233 675 l 3 831 q -15 858 -10 843 q -21 888 -21 872 q -13 919 -21 904 q 6 947 -6 935 q 33 967 18 960 q 65 975 49 975 q 122 950 94 975 l 271 710 z "},"í":{"ha":453,"x_min":42,"x_max":485,"o":"m 42 613 l 124 613 l 343 646 l 343 71 l 425 71 l 425 0 l 42 0 l 42 71 l 124 71 l 124 543 l 42 543 l 42 613 m 342 951 q 399 976 368 976 q 431 969 415 976 q 458 949 446 961 q 477 921 469 936 q 485 889 485 906 q 479 859 485 874 q 461 832 474 844 l 231 676 l 193 711 l 342 951 z "},"î":{"ha":453,"x_min":18,"x_max":435,"o":"m 42 613 l 124 613 l 343 646 l 343 71 l 425 71 l 425 0 l 42 0 l 42 71 l 124 71 l 124 543 l 42 543 l 42 613 m 167 951 q 222 976 193 976 l 229 976 q 286 951 258 976 l 435 711 l 397 676 l 226 792 l 56 676 l 18 711 l 167 951 z "},"ï":{"ha":453,"x_min":8,"x_max":451,"o":"m 42 613 l 124 613 l 343 646 l 343 71 l 425 71 l 425 0 l 42 0 l 42 71 l 124 71 l 124 543 l 42 543 l 42 613 m 8 829 q 31 908 8 882 q 107 933 54 933 q 185 908 164 933 q 206 829 206 882 q 183 751 206 776 q 107 726 160 726 q 31 751 54 726 q 8 829 8 776 m 254 829 q 277 908 254 882 q 353 933 300 933 q 431 908 410 933 q 451 829 451 882 q 428 751 451 776 q 353 726 406 726 q 277 751 300 726 q 254 829 254 776 z "},"ð":{"ha":744,"x_min":49,"x_max":696,"o":"m 296 907 q 374 865 336 886 q 447 821 411 844 l 614 907 l 660 839 l 518 768 q 656 573 615 683 q 696 310 696 463 q 679 159 696 221 q 624 59 663 97 q 523 3 585 21 q 372 -14 461 -14 q 221 3 282 -14 q 121 59 160 21 q 65 159 82 97 q 49 310 49 221 q 65 460 49 399 q 121 560 82 522 q 221 616 160 599 q 372 633 282 633 q 551 596 476 633 q 501 667 532 633 q 435 725 471 700 l 304 660 l 263 726 l 360 776 q 306 807 332 792 q 254 836 279 822 l 296 907 m 276 310 q 280 209 276 256 q 289 129 283 163 q 301 57 294 89 q 319 53 308 54 q 372 49 338 49 q 425 53 406 49 q 443 57 436 54 q 456 129 450 89 q 464 209 460 163 q 468 310 468 256 q 464 410 468 364 q 456 490 460 456 q 443 563 450 529 q 424 567 435 564 q 401 569 414 568 q 372 571 388 571 q 342 569 354 571 q 319 567 329 568 q 301 563 308 564 q 289 490 294 529 q 280 410 283 456 q 276 310 276 364 z "},"ñ":{"ha":838,"x_min":42,"x_max":817,"o":"m 42 599 l 124 599 l 333 639 l 333 542 q 349 561 336 546 q 386 592 361 576 q 451 621 411 608 q 550 633 492 633 q 615 628 582 633 q 674 608 647 622 q 718 568 701 593 q 735 503 735 543 l 735 71 l 817 71 l 817 0 l 515 0 l 515 547 q 507 549 513 547 q 476 551 496 551 q 424 540 447 551 q 385 513 401 528 q 358 481 368 497 q 343 457 347 465 l 343 71 l 425 71 l 425 0 l 42 0 l 42 71 l 124 71 l 124 529 l 42 529 l 42 599 m 271 774 q 313 853 285 831 q 385 875 342 875 q 429 867 407 875 q 473 851 451 860 q 515 834 494 842 q 556 826 536 826 q 591 841 579 826 q 610 876 603 856 l 678 847 q 635 768 664 790 q 565 746 607 746 q 519 753 542 746 q 476 770 497 761 q 433 787 454 779 q 393 794 413 794 q 358 780 369 794 q 339 744 346 765 l 271 774 z "},"ò":{"ha":744,"x_min":49,"x_max":696,"o":"m 276 310 q 280 209 276 256 q 289 129 283 163 q 301 57 294 89 q 319 53 308 54 q 372 49 338 49 q 425 53 406 49 q 443 57 436 54 q 456 129 450 89 q 464 209 460 163 q 468 310 468 256 q 464 410 468 364 q 456 490 460 456 q 443 563 450 529 q 424 567 435 564 q 401 569 414 568 q 372 571 388 571 q 342 569 354 571 q 319 567 329 568 q 301 563 308 564 q 289 490 294 529 q 280 410 283 456 q 276 310 276 364 m 49 310 q 65 460 49 399 q 121 560 82 522 q 221 616 160 599 q 372 633 282 633 q 523 616 461 633 q 624 560 585 599 q 679 460 663 522 q 696 310 696 399 q 679 159 696 221 q 624 59 663 97 q 523 3 585 21 q 372 -14 461 -14 q 221 3 282 -14 q 121 59 160 21 q 65 159 82 97 q 49 310 49 221 m 410 714 l 375 675 l 101 826 q 72 886 72 851 q 80 919 72 903 q 99 948 88 935 q 126 969 111 961 q 157 976 142 976 q 208 957 185 976 l 410 714 z "},"ó":{"ha":744,"x_min":49,"x_max":696,"o":"m 276 310 q 280 209 276 256 q 289 129 283 163 q 301 57 294 89 q 319 53 308 54 q 372 49 338 49 q 425 53 406 49 q 443 57 436 54 q 456 129 450 89 q 464 209 460 163 q 468 310 468 256 q 464 410 468 364 q 456 490 460 456 q 443 563 450 529 q 424 567 435 564 q 401 569 414 568 q 372 571 388 571 q 342 569 354 571 q 319 567 329 568 q 301 563 308 564 q 289 490 294 529 q 280 410 283 456 q 276 310 276 364 m 49 310 q 65 460 49 399 q 121 560 82 522 q 221 616 160 599 q 372 633 282 633 q 523 616 461 633 q 624 560 585 599 q 679 460 663 522 q 696 310 696 399 q 679 159 696 221 q 624 59 663 97 q 523 3 585 21 q 372 -14 461 -14 q 221 3 282 -14 q 121 59 160 21 q 65 159 82 97 q 49 310 49 221 m 542 957 q 593 976 565 976 q 624 969 608 976 q 651 948 639 961 q 670 919 663 935 q 678 886 678 903 q 649 826 678 851 l 375 675 l 340 714 l 542 957 z "},"ô":{"ha":744,"x_min":49,"x_max":696,"o":"m 276 310 q 280 209 276 256 q 289 129 283 163 q 301 57 294 89 q 319 53 308 54 q 372 49 338 49 q 425 53 406 49 q 443 57 436 54 q 456 129 450 89 q 464 209 460 163 q 468 310 468 256 q 464 410 468 364 q 456 490 460 456 q 443 563 450 529 q 424 567 435 564 q 401 569 414 568 q 372 571 388 571 q 342 569 354 571 q 319 567 329 568 q 301 563 308 564 q 289 490 294 529 q 280 410 283 456 q 276 310 276 364 m 49 310 q 65 460 49 399 q 121 560 82 522 q 221 616 160 599 q 372 633 282 633 q 523 616 461 633 q 624 560 585 599 q 679 460 663 522 q 696 310 696 399 q 679 159 696 221 q 624 59 663 97 q 523 3 585 21 q 372 -14 461 -14 q 221 3 282 -14 q 121 59 160 21 q 65 159 82 97 q 49 310 49 221 m 313 944 q 337 966 322 956 q 369 976 351 976 l 381 976 q 438 944 413 976 l 628 714 l 593 675 l 375 796 l 157 675 l 122 714 l 313 944 z "},"õ":{"ha":744,"x_min":49,"x_max":696,"o":"m 276 310 q 280 209 276 256 q 289 129 283 163 q 301 57 294 89 q 319 53 308 54 q 372 49 338 49 q 425 53 406 49 q 443 57 436 54 q 456 129 450 89 q 464 209 460 163 q 468 310 468 256 q 464 410 468 364 q 456 490 460 456 q 443 563 450 529 q 424 567 435 564 q 401 569 414 568 q 372 571 388 571 q 342 569 354 571 q 319 567 329 568 q 301 563 308 564 q 289 490 294 529 q 280 410 283 456 q 276 310 276 364 m 49 310 q 65 460 49 399 q 121 560 82 522 q 221 616 160 599 q 372 633 282 633 q 523 616 461 633 q 624 560 585 599 q 679 460 663 522 q 696 310 696 399 q 679 159 696 221 q 624 59 663 97 q 523 3 585 21 q 372 -14 461 -14 q 221 3 282 -14 q 121 59 160 21 q 65 159 82 97 q 49 310 49 221 m 169 774 q 212 853 183 831 q 283 875 240 875 q 328 867 306 875 q 372 851 350 860 q 414 834 393 842 q 454 826 435 826 q 490 841 478 826 q 508 876 501 856 l 576 847 q 534 768 563 790 q 464 746 506 746 q 418 753 440 746 q 374 770 396 761 q 332 787 353 779 q 292 794 311 794 q 256 780 268 794 q 238 744 244 765 l 169 774 z "},"ö":{"ha":744,"x_min":49,"x_max":696,"o":"m 276 310 q 280 209 276 256 q 289 129 283 163 q 301 57 294 89 q 319 53 308 54 q 372 49 338 49 q 425 53 406 49 q 443 57 436 54 q 456 129 450 89 q 464 209 460 163 q 468 310 468 256 q 464 410 468 364 q 456 490 460 456 q 443 563 450 529 q 424 567 435 564 q 401 569 414 568 q 372 571 388 571 q 342 569 354 571 q 319 567 329 568 q 301 563 308 564 q 289 490 294 529 q 280 410 283 456 q 276 310 276 364 m 49 310 q 65 460 49 399 q 121 560 82 522 q 221 616 160 599 q 372 633 282 633 q 523 616 461 633 q 624 560 585 599 q 679 460 663 522 q 696 310 696 399 q 679 159 696 221 q 624 59 663 97 q 523 3 585 21 q 372 -14 461 -14 q 221 3 282 -14 q 121 59 160 21 q 65 159 82 97 q 49 310 49 221 m 132 829 q 155 908 132 882 q 231 933 178 933 q 308 908 288 933 q 329 829 329 882 q 306 751 329 776 q 231 726 283 726 q 155 751 178 726 q 132 829 132 776 m 417 829 q 440 908 417 882 q 515 933 463 933 q 593 908 572 933 q 614 829 614 882 q 591 751 614 776 q 515 726 568 726 q 440 751 463 726 q 417 829 417 776 z "},"÷":{"ha":656,"x_min":69,"x_max":586,"o":"m 586 406 l 586 325 l 69 325 l 69 406 l 586 406 m 269 156 q 283 202 269 188 q 328 217 296 217 q 372 202 360 217 q 385 156 385 188 q 328 96 385 96 q 283 110 296 96 q 269 156 269 124 m 269 572 q 283 619 269 604 q 328 633 296 633 q 372 619 360 633 q 385 572 385 604 q 328 513 385 513 q 283 526 296 513 q 269 572 269 540 z "},"ø":{"ha":744,"x_min":49,"x_max":696,"o":"m 557 604 q 664 502 632 572 q 696 310 696 432 q 679 159 696 221 q 624 59 663 97 q 523 3 585 21 q 372 -14 461 -14 q 319 -12 344 -14 q 271 -7 294 -10 l 253 -47 l 158 -47 l 188 15 q 81 117 113 47 q 49 310 49 188 q 65 460 49 399 q 121 560 82 522 q 221 616 160 599 q 372 633 282 633 q 425 631 400 633 q 472 626 450 629 l 492 667 l 586 667 l 557 604 m 443 57 q 456 129 450 89 q 464 209 460 163 q 468 310 468 256 l 468 414 l 300 53 q 333 50 314 51 q 372 49 353 49 q 425 53 406 49 q 443 57 436 54 m 276 206 l 444 565 q 410 569 429 568 q 372 571 392 571 q 342 569 354 571 q 319 567 329 568 q 301 563 308 564 q 289 490 294 529 q 280 410 283 456 q 276 310 276 364 l 276 206 z "},"ù":{"ha":806,"x_min":21,"x_max":778,"o":"m 21 599 l 103 599 l 313 639 l 313 76 q 321 74 315 75 q 351 72 326 72 q 403 84 381 72 q 442 111 425 96 q 469 142 458 126 q 485 165 481 157 l 485 624 l 704 624 l 704 69 l 722 69 q 747 71 735 69 l 778 74 l 778 7 q 729 0 753 3 q 688 -4 710 -3 q 651 -6 665 -6 q 589 2 615 -6 q 544 22 563 10 q 513 51 525 35 q 494 82 500 67 q 479 63 492 78 q 441 31 467 47 q 376 3 415 15 q 278 -10 336 -10 q 213 -4 246 -10 q 153 16 181 1 q 110 56 126 31 q 93 121 93 81 l 93 529 l 21 529 l 21 599 m 436 714 l 401 675 l 128 826 q 99 886 99 851 q 106 919 99 903 q 126 948 114 935 q 153 969 138 961 q 183 976 168 976 q 235 957 211 976 l 436 714 z "},"ú":{"ha":806,"x_min":21,"x_max":778,"o":"m 21 599 l 103 599 l 313 639 l 313 76 q 321 74 315 75 q 351 72 326 72 q 403 84 381 72 q 442 111 425 96 q 469 142 458 126 q 485 165 481 157 l 485 624 l 704 624 l 704 69 l 722 69 q 747 71 735 69 l 778 74 l 778 7 q 729 0 753 3 q 688 -4 710 -3 q 651 -6 665 -6 q 589 2 615 -6 q 544 22 563 10 q 513 51 525 35 q 494 82 500 67 q 479 63 492 78 q 441 31 467 47 q 376 3 415 15 q 278 -10 336 -10 q 213 -4 246 -10 q 153 16 181 1 q 110 56 126 31 q 93 121 93 81 l 93 529 l 21 529 l 21 599 m 568 957 q 619 976 592 976 q 650 969 635 976 q 677 948 665 961 q 697 919 689 935 q 704 886 704 903 q 675 826 704 851 l 401 675 l 367 714 l 568 957 z "},"û":{"ha":806,"x_min":21,"x_max":778,"o":"m 21 599 l 103 599 l 313 639 l 313 76 q 321 74 315 75 q 351 72 326 72 q 403 84 381 72 q 442 111 425 96 q 469 142 458 126 q 485 165 481 157 l 485 624 l 704 624 l 704 69 l 722 69 q 747 71 735 69 l 778 74 l 778 7 q 729 0 753 3 q 688 -4 710 -3 q 651 -6 665 -6 q 589 2 615 -6 q 544 22 563 10 q 513 51 525 35 q 494 82 500 67 q 479 63 492 78 q 441 31 467 47 q 376 3 415 15 q 278 -10 336 -10 q 213 -4 246 -10 q 153 16 181 1 q 110 56 126 31 q 93 121 93 81 l 93 529 l 21 529 l 21 599 m 339 944 q 363 966 349 956 q 396 976 378 976 l 407 976 q 464 944 439 976 l 654 714 l 619 675 l 401 796 l 183 675 l 149 714 l 339 944 z "},"ü":{"ha":806,"x_min":21,"x_max":778,"o":"m 21 599 l 103 599 l 313 639 l 313 76 q 321 74 315 75 q 351 72 326 72 q 403 84 381 72 q 442 111 425 96 q 469 142 458 126 q 485 165 481 157 l 485 624 l 704 624 l 704 69 l 722 69 q 747 71 735 69 l 778 74 l 778 7 q 729 0 753 3 q 688 -4 710 -3 q 651 -6 665 -6 q 589 2 615 -6 q 544 22 563 10 q 513 51 525 35 q 494 82 500 67 q 479 63 492 78 q 441 31 467 47 q 376 3 415 15 q 278 -10 336 -10 q 213 -4 246 -10 q 153 16 181 1 q 110 56 126 31 q 93 121 93 81 l 93 529 l 21 529 l 21 599 m 443 829 q 466 908 443 882 q 542 933 489 933 q 619 908 599 933 q 640 829 640 882 q 617 751 640 776 q 542 726 594 726 q 466 751 489 726 q 443 829 443 776 m 158 829 q 181 908 158 882 q 257 933 204 933 q 335 908 314 933 q 356 829 356 882 q 333 751 356 776 q 257 726 310 726 q 181 751 204 726 q 158 829 158 776 z "},"ý":{"ha":738,"x_min":-21,"x_max":751,"o":"m -21 624 l 269 624 l 429 219 l 574 553 l 463 553 l 463 624 l 751 624 l 751 553 l 654 553 l 376 -97 q 349 -152 364 -128 q 316 -194 335 -176 q 272 -220 297 -211 q 210 -229 246 -229 q 148 -216 171 -229 q 113 -184 125 -203 q 97 -145 100 -165 q 93 -110 93 -125 l 93 -68 l 167 -68 l 167 -111 q 176 -143 167 -128 q 210 -158 185 -158 q 267 -132 247 -158 q 303 -69 288 -106 l 318 -33 l 49 553 l -21 553 l -21 624 m 572 957 q 624 976 596 976 q 654 969 639 976 q 681 948 669 961 q 701 919 693 935 q 708 886 708 903 q 679 826 708 851 l 406 675 l 371 714 l 572 957 z "},"þ":{"ha":804,"x_min":35,"x_max":756,"o":"m 35 854 l 117 854 l 336 894 l 336 560 q 422 613 375 593 q 519 632 468 632 q 621 615 576 632 q 695 559 665 597 q 740 459 725 521 q 756 310 756 397 q 739 159 756 221 q 683 59 722 97 q 583 4 644 21 q 432 -12 521 -12 q 383 -10 407 -12 q 336 -4 358 -7 l 336 -229 l 35 -229 l 35 -158 l 117 -158 l 117 785 l 35 785 l 35 854 m 503 557 q 413 527 457 557 q 336 453 369 497 l 336 63 q 385 53 360 56 q 432 50 410 50 q 485 54 465 50 q 503 58 496 56 q 515 129 510 90 q 524 209 519 163 q 528 310 528 256 q 524 423 528 376 q 515 500 519 469 q 503 557 510 536 z "},"ÿ":{"ha":738,"x_min":-21,"x_max":751,"o":"m -21 624 l 269 624 l 429 219 l 574 553 l 463 553 l 463 624 l 751 624 l 751 553 l 654 553 l 376 -97 q 349 -152 364 -128 q 316 -194 335 -176 q 272 -220 297 -211 q 210 -229 246 -229 q 148 -216 171 -229 q 113 -184 125 -203 q 97 -145 100 -165 q 93 -110 93 -125 l 93 -68 l 167 -68 l 167 -111 q 176 -143 167 -128 q 210 -158 185 -158 q 267 -132 247 -158 q 303 -69 288 -106 l 318 -33 l 49 553 l -21 553 l -21 624 m 163 829 q 185 908 163 882 q 261 933 208 933 q 339 908 318 933 q 360 829 360 882 q 337 751 360 776 q 261 726 314 726 q 185 751 208 726 q 163 829 163 776 m 447 829 q 470 908 447 882 q 546 933 493 933 q 624 908 603 933 q 644 829 644 882 q 622 751 644 776 q 546 726 599 726 q 470 751 493 726 q 447 829 447 776 z "},"ı":{"ha":453,"x_min":42,"x_max":425,"o":"m 42 613 l 124 613 l 343 646 l 343 71 l 425 71 l 425 0 l 42 0 l 42 71 l 124 71 l 124 543 l 42 543 l 42 613 z "},"Œ":{"ha":1250,"x_min":63,"x_max":1181,"o":"m 1160 854 l 1160 571 q 1045 593 1090 571 q 972 647 1000 615 q 929 714 943 679 q 910 774 915 749 l 785 774 l 785 465 l 1028 465 l 1028 385 l 785 385 l 785 81 l 931 81 q 950 140 936 106 q 992 207 964 175 q 1065 262 1019 239 q 1181 285 1111 285 l 1181 0 l 478 0 q 291 23 369 0 q 162 97 213 46 q 87 230 111 149 q 63 426 63 311 q 87 623 63 542 q 162 756 111 704 q 291 831 213 807 q 478 854 369 854 l 1160 854 m 478 72 q 551 76 522 72 l 551 776 q 519 779 536 778 q 478 781 501 781 q 429 778 450 781 q 393 774 408 776 q 363 768 376 771 q 342 668 350 724 q 328 559 335 621 q 322 426 322 497 q 328 290 322 351 q 342 182 335 228 q 363 85 350 128 q 393 78 376 81 q 429 74 408 75 q 478 72 450 72 z "},"œ":{"ha":1085,"x_min":49,"x_max":1036,"o":"m 774 633 q 900 619 850 633 q 981 572 950 604 q 1024 488 1011 540 q 1036 360 1036 436 q 1035 319 1036 336 q 1032 290 1033 301 q 1029 269 1031 276 l 686 269 q 692 184 688 222 q 700 118 696 146 q 711 60 706 85 q 724 56 715 57 q 744 53 731 54 q 778 53 757 53 q 844 58 813 53 q 899 74 875 63 q 935 105 922 85 q 949 154 949 125 l 1024 154 q 998 63 1024 96 q 934 12 972 29 q 851 -10 896 -6 q 768 -14 807 -14 q 574 43 646 -14 q 372 -14 499 -14 q 221 3 282 -14 q 121 59 160 21 q 65 159 82 97 q 49 310 49 221 q 65 460 49 399 q 121 560 82 522 q 221 616 160 599 q 372 633 282 633 q 572 575 494 633 q 774 633 644 633 m 276 310 q 280 209 276 256 q 289 129 283 163 q 301 57 294 89 q 319 53 308 54 q 372 49 338 49 q 425 53 406 49 q 443 57 436 54 q 456 129 450 89 q 464 209 460 163 q 468 310 468 256 q 464 410 468 364 q 456 490 460 456 q 443 563 450 529 q 424 567 435 564 q 401 569 414 568 q 372 571 388 571 q 342 569 354 571 q 319 567 329 568 q 301 563 308 564 q 289 490 294 529 q 280 410 283 456 q 276 310 276 364 m 711 563 q 699 496 704 532 q 690 422 694 464 q 686 329 686 379 l 821 329 q 814 431 818 388 q 804 504 810 475 q 792 563 799 539 q 782 567 788 564 q 769 569 776 568 q 751 571 761 571 q 735 569 742 571 q 722 567 728 568 q 711 563 717 564 z "},"Ÿ":{"ha":831,"x_min":21,"x_max":817,"o":"m 21 854 l 274 854 l 490 461 l 629 774 l 488 774 l 488 854 l 817 854 l 817 774 l 714 774 l 526 357 l 526 81 l 650 81 l 650 0 l 169 0 l 169 81 l 293 81 l 293 351 l 21 825 l 21 854 m 174 1060 q 197 1138 174 1113 q 272 1164 219 1164 q 350 1138 329 1164 q 371 1060 371 1113 q 348 982 371 1007 q 272 957 325 957 q 197 982 219 957 q 174 1060 174 1007 m 458 1060 q 481 1138 458 1113 q 557 1164 504 1164 q 635 1138 614 1164 q 656 1060 656 1113 q 633 982 656 1007 q 557 957 610 957 q 481 982 504 957 q 458 1060 458 1007 z "},"ʼ":{"ha":369,"x_min":69,"x_max":300,"o":"m 69 754 q 96 846 69 817 q 185 875 122 875 q 276 846 251 875 q 300 754 300 817 q 296 630 300 679 q 273 550 292 581 q 215 507 254 519 q 103 494 175 494 l 103 561 l 114 561 q 197 576 172 561 q 225 639 222 592 q 185 635 206 635 q 96 663 122 635 q 69 754 69 692 z "},"ˆ":{"ha":722,"x_min":108,"x_max":614,"o":"m 299 944 q 323 966 308 956 q 356 976 338 976 l 367 976 q 424 944 399 976 l 614 714 l 579 675 l 361 796 l 143 675 l 108 714 l 299 944 z "},"˚":{"ha":722,"x_min":207,"x_max":515,"o":"m 207 833 q 249 944 207 901 q 361 986 292 986 q 474 946 433 986 q 515 833 515 906 q 473 723 515 765 q 361 681 431 681 q 248 722 289 681 q 207 833 207 763 m 290 835 q 309 774 290 794 q 361 753 328 753 q 413 774 393 753 q 432 835 432 796 q 361 914 432 914 q 310 893 329 914 q 290 835 290 872 z "},"˜":{"ha":722,"x_min":157,"x_max":564,"o":"m 157 774 q 199 853 171 831 q 271 875 228 875 q 315 867 293 875 q 359 851 338 860 q 401 834 381 842 q 442 826 422 826 q 477 841 465 826 q 496 876 489 856 l 564 847 q 522 768 550 790 q 451 746 493 746 q 406 753 428 746 q 362 770 383 761 q 319 787 340 779 q 279 794 299 794 q 244 780 256 794 q 225 744 232 765 l 157 774 z "},"–":{"ha":611,"x_min":0,"x_max":611,"o":"m 611 447 l 611 367 l 0 367 l 0 447 l 611 447 z "},"—":{"ha":961,"x_min":0,"x_max":961,"o":"m 961 447 l 961 367 l 0 367 l 0 447 l 961 447 z "},"‘":{"ha":369,"x_min":69,"x_max":300,"o":"m 300 614 q 274 522 300 551 q 185 493 247 493 q 94 522 118 493 q 69 614 69 551 q 74 738 69 689 q 97 818 78 788 q 155 861 115 849 q 267 874 194 874 l 267 807 l 256 807 q 172 792 197 807 q 144 729 146 776 q 185 733 161 733 q 274 705 247 733 q 300 614 300 676 z "},"’":{"ha":369,"x_min":69,"x_max":300,"o":"m 69 753 q 96 844 69 815 q 185 874 122 874 q 276 844 251 874 q 300 753 300 815 q 296 628 300 678 q 273 549 292 579 q 215 506 254 518 q 103 493 175 493 l 103 560 l 114 560 q 197 575 172 560 q 225 638 222 590 q 185 633 206 633 q 96 662 122 633 q 69 753 69 690 z "},"‚":{"ha":369,"x_min":69,"x_max":300,"o":"m 69 86 q 96 178 69 149 q 185 207 122 207 q 276 178 251 207 q 300 86 300 149 q 296 -38 300 11 q 273 -118 292 -87 q 215 -161 254 -149 q 103 -174 175 -174 l 103 -107 l 114 -107 q 197 -92 172 -107 q 225 -29 222 -76 q 185 -33 206 -33 q 96 -5 122 -33 q 69 86 69 24 z "},"“":{"ha":647,"x_min":69,"x_max":578,"o":"m 578 614 q 551 522 578 551 q 463 493 525 493 q 372 522 396 493 q 347 614 347 551 l 347 625 q 351 744 347 696 q 375 820 356 792 q 434 861 394 849 q 544 874 474 874 l 544 807 l 533 807 q 449 792 475 807 q 422 729 424 776 q 463 733 439 733 q 551 705 525 733 q 578 614 578 676 m 300 614 q 274 522 300 551 q 185 493 247 493 q 94 522 118 493 q 69 614 69 551 q 74 738 69 689 q 97 818 78 788 q 155 861 115 849 q 267 874 194 874 l 267 807 l 256 807 q 172 792 197 807 q 144 729 146 776 q 185 733 161 733 q 274 705 247 733 q 300 614 300 676 z "},"”":{"ha":647,"x_min":69,"x_max":578,"o":"m 69 753 q 96 844 69 815 q 185 874 122 874 q 276 844 251 874 q 300 753 300 815 q 296 628 300 678 q 273 549 292 579 q 215 506 254 518 q 103 493 175 493 l 103 560 l 114 560 q 197 575 172 560 q 225 638 222 590 q 185 633 206 633 q 96 662 122 633 q 69 753 69 690 m 347 753 q 374 844 347 815 q 463 874 400 874 q 553 844 529 874 q 578 753 578 815 q 574 628 578 678 q 551 549 569 579 q 492 506 532 518 q 381 493 453 493 l 381 560 l 392 560 q 475 575 450 560 q 503 638 500 590 q 463 633 483 633 q 374 662 400 633 q 347 753 347 690 z "},"„":{"ha":647,"x_min":69,"x_max":578,"o":"m 69 86 q 96 178 69 149 q 185 207 122 207 q 276 178 251 207 q 300 86 300 149 q 296 -38 300 11 q 273 -118 292 -87 q 215 -161 254 -149 q 103 -174 175 -174 l 103 -107 l 114 -107 q 197 -92 172 -107 q 225 -29 222 -76 q 185 -33 206 -33 q 96 -5 122 -33 q 69 86 69 24 m 347 86 q 374 178 347 149 q 463 207 400 207 q 553 178 529 207 q 578 86 578 149 q 574 -38 578 11 q 551 -118 569 -87 q 492 -161 532 -149 q 381 -174 453 -174 l 381 -107 l 392 -107 q 475 -92 450 -107 q 503 -29 500 -76 q 463 -33 483 -33 q 374 -5 400 -33 q 347 86 347 24 z "},"•":{"ha":522,"x_min":111,"x_max":411,"o":"m 111 415 q 145 534 111 496 q 261 572 179 572 q 379 534 347 572 q 411 415 411 496 q 376 297 411 333 q 261 260 342 260 q 145 297 179 260 q 111 415 111 333 z "},"‹":{"ha":469,"x_min":83,"x_max":400,"o":"m 117 272 q 93 299 103 283 q 83 338 83 314 l 83 344 q 97 378 85 363 q 132 414 110 394 l 360 604 l 400 567 l 274 338 l 400 108 l 360 72 l 117 272 z "},"›":{"ha":469,"x_min":69,"x_max":386,"o":"m 110 72 l 69 108 l 196 338 l 69 567 l 110 604 l 338 414 q 372 378 360 394 q 386 344 385 363 l 386 338 q 376 299 386 314 q 353 272 367 283 l 110 72 z "},"⁄":{"ha":481,"x_min":0,"x_max":481,"o":"m 92 0 l 0 0 l 389 801 l 481 801 l 92 0 z "},"⁴":{"ha":481,"x_min":35,"x_max":453,"o":"m 35 631 l 193 858 l 368 875 l 368 669 l 453 669 l 453 607 l 368 607 l 368 561 l 453 561 l 453 496 l 108 496 l 108 561 l 193 561 l 193 607 l 35 607 l 35 631 m 194 669 l 211 786 l 139 669 l 194 669 z "},"€":{"ha":874,"x_min":56,"x_max":818,"o":"m 789 510 q 653 543 703 510 q 577 618 603 576 q 543 697 551 660 q 535 744 535 735 q 499 742 515 743 q 472 738 483 740 q 449 732 458 735 q 433 671 440 706 q 421 600 426 642 q 411 507 415 558 l 651 507 l 640 426 l 408 426 l 408 368 l 631 368 l 619 288 l 413 288 q 422 193 415 235 q 435 122 428 151 q 449 61 442 88 q 469 56 457 58 q 528 51 490 51 q 612 62 574 51 q 678 95 650 72 q 722 155 706 118 q 738 243 738 192 l 738 286 l 818 286 l 818 247 q 794 126 818 176 q 731 42 771 75 q 638 -6 690 10 q 528 -21 586 -21 q 381 -4 446 -21 q 270 49 317 13 q 195 144 224 86 q 156 288 167 203 l 56 288 l 67 368 l 149 368 l 149 426 l 75 426 l 86 507 l 154 507 q 194 650 165 592 q 273 745 224 708 q 391 798 322 782 q 550 814 460 814 q 640 810 597 814 q 717 803 683 807 q 789 793 756 797 l 789 510 z "},"−":{"ha":614,"x_min":69,"x_max":544,"o":"m 544 406 l 544 325 l 69 325 l 69 406 l 544 406 z "},"∕":{"ha":456,"x_min":0,"x_max":456,"o":"m 94 -64 l 0 -64 l 361 894 l 456 894 l 94 -64 z "}}}
